<?xml version="1.0" encoding="UTF-8"?>
<svg id="Layer_2" xmlns="http://www.w3.org/2000/svg" viewBox="0 0 754.72 814.12">
  <defs>
    <style>
      .cls-1 {
        fill: blue;
      }
    </style>
  </defs>
  <g id="Layer_1-2" data-name="Layer_1">
    <g>
      <path class="cls-1" d="M256.36,288.29c-5.57-1.02-11.08-1.53-16.53-1.53-16.58,0-31.12,2.5-43.62,7.5-12.5,5-22.95,11.3-31.35,18.91-8.41,7.61-14.71,16.13-18.91,25.56-4.21,9.43-6.3,18.57-6.3,27.43,0,12.27,3.01,23.51,9.03,33.73,6.02,10.22,13.8,19.08,23.34,26.58,6.36,5,12.83,9.15,19.42,12.44,6.59,3.29,13,6.08,19.25,8.35,6.24,2.27,12.15,4.2,17.72,5.79,5.56,1.59,10.45,3.35,14.65,5.28,4.2,1.93,7.5,4.21,9.88,6.81,2.38,2.62,3.58,5.96,3.58,10.05,0,3.18-1.02,5.85-3.07,8.01-2.04,2.16-4.49,3.87-7.33,5.11-2.84,1.25-5.74,2.16-8.69,2.73-2.95.57-5.34.85-7.16.85-10.45,0-19.2-1.36-26.24-4.09-7.04-2.72-12.95-6.07-17.72-10.05-4.77-3.97-8.75-8.29-11.93-12.95-3.18-4.65-6.08-8.97-8.69-12.95-2.61-3.97-5.28-7.33-8.01-10.05-2.73-2.72-6.13-4.09-10.22-4.09-5.23,0-8.92,1.93-11.07,5.79-2.16,3.87-3.24,8.07-3.24,12.61s.51,9.6,1.53,15.84c1.02,6.25,2.5,12.44,4.43,18.57,1.93,6.13,4.43,11.82,7.5,17.04,3.07,5.23,6.64,8.97,10.73,11.24,4.77,2.73,10.62,5.11,17.55,7.16,6.93,2.04,14.08,3.75,21.47,5.11,7.38,1.36,14.71,2.39,21.98,3.07,7.27.68,13.74,1.02,19.42,1.02,19.76,0,36.74-2.56,50.94-7.67,14.2-5.11,25.84-11.7,34.93-19.76,9.08-8.06,15.73-17.15,19.93-27.26,4.2-10.11,6.3-20.16,6.3-30.16,0-12.95-2.61-23.85-7.84-32.71-5.23-8.86-13.18-16.81-23.85-23.85-10-6.59-20.05-11.42-30.15-14.48-10.11-3.07-19.37-5.79-27.77-8.18-8.41-2.38-15.22-5.16-20.44-8.35-5.23-3.18-7.84-8.18-7.84-14.99,0-6.13,2.33-10.5,6.98-13.12,4.65-2.61,9.59-3.92,14.82-3.92,8.86,0,16.53,2.04,23,6.13,6.48,4.09,12.32,8.52,17.55,13.29,5.22,4.77,10.28,9.2,15.16,13.29,4.88,4.09,10.16,6.13,15.84,6.13,6.36,0,11.3-2.39,14.82-7.16,3.52-4.77,5.28-10.11,5.28-16.01,0-7.04-1.42-13.85-4.26-20.44-2.84-6.59-6.25-12.32-10.22-17.21-3.98-4.88-8.07-8.8-12.27-11.76-4.21-2.95-7.78-4.43-10.73-4.43-3.64,0-6.7.68-9.2,2.04-2.5,1.36-5,2.04-7.5,2.04-1.36,0-3.75-.51-7.16-1.53-3.41-1.02-7.5-2.16-12.27-3.41-4.77-1.25-9.94-2.39-15.5-3.41Z"/>
      <path class="cls-1" d="M560.98,524.93c11.7-4.77,21.12-10.79,28.28-18.06,7.15-7.27,12.27-15.39,15.33-24.36,3.07-8.97,4.6-17.77,4.6-26.41,0-7.04-1.31-13.51-3.92-19.42-2.61-5.91-5.91-11.02-9.88-15.33-3.98-4.31-8.18-7.95-12.61-10.9-4.43-2.95-8.35-5.11-11.76-6.47-1.82-.91-3.47-1.82-4.94-2.73-1.48-.9-2.21-2.5-2.21-4.77s.62-4.03,1.88-5.28c1.24-1.25,2.67-2.56,4.26-3.92,6.13-4.99,10.79-11.3,13.97-18.91,3.18-7.61,4.77-15.39,4.77-23.34,0-6.59-1.14-13.17-3.41-19.76-2.27-6.59-6.36-12.55-12.27-17.89-5.91-5.33-13.92-9.71-24.02-13.12-10.11-3.41-23-5.11-38.67-5.11-3.87,0-7.84.12-11.93.34-4.09.23-8.07.46-11.93.68-3.86.46-7.78.8-11.75,1.02-3.98.23-8.01.34-12.1.34-6.36,0-12.67-.11-18.91-.34-6.25-.22-12.55-.56-18.91-1.02-6.36-.22-12.67-.45-18.91-.68-6.25-.22-12.55-.34-18.91-.34-2.72,0-5.51.4-8.35,1.19-2.84.8-5.45,1.99-7.84,3.58-2.38,1.59-4.37,3.58-5.96,5.96-1.59,2.38-2.39,5.17-2.39,8.35,0,3.87.73,6.64,2.21,8.35,1.47,1.7,3.24,3.01,5.28,3.92,2.04.91,4.31,1.87,6.81,2.9,2.5,1.02,4.77,2.78,6.81,5.28,2.04,2.5,3.69,6.13,4.94,10.9,1.25,4.77,1.64,11.47,1.19,20.1l-3.75,98.13c-.46,9.54-1.31,17.04-2.56,22.49-1.25,5.45-2.78,9.66-4.6,12.61-1.82,2.95-3.75,5.06-5.79,6.3-2.04,1.25-3.87,2.39-5.45,3.41-1.59,1.02-2.96,2.27-4.09,3.75-1.14,1.48-1.7,4.03-1.7,7.67,0,5.91,2.44,10.39,7.32,13.46,4.88,3.07,9.94,4.6,15.16,4.6,11.81,0,23.51-.34,35.1-1.02,5.9-.23,11.76-.4,17.55-.51,5.79-.12,11.64-.17,17.55-.17,5.22,0,10.39.05,15.5.17,5.11.11,10.28.28,15.5.51,10.22.68,21.01,1.02,32.37,1.02,17.04,0,31.4-2.39,43.1-7.16ZM470.85,344.68v-7.33c0-2.38.28-4.54.85-6.47.57-1.93,1.64-3.46,3.24-4.6,1.59-1.13,3.97-1.7,7.16-1.7,4.77,0,8.69,1.08,11.76,3.24,3.07,2.16,5.51,4.89,7.33,8.18,1.81,3.3,3.07,6.98,3.75,11.07.68,4.09,1.02,8.07,1.02,11.93,0,4.77-.34,9.15-1.02,13.12-.68,3.98-1.99,7.44-3.92,10.39-1.93,2.96-4.55,5.28-7.84,6.98-3.3,1.7-7.44,2.56-12.44,2.56s-8.18-1.64-8.86-4.94c-.68-3.29-1.02-8.23-1.02-14.82v-27.6ZM508.33,487.11c-3.87,5.91-10.68,8.86-20.44,8.86-2.72,0-5.11-.28-7.16-.85-2.04-.56-3.8-2.1-5.28-4.6-1.48-2.49-2.61-6.47-3.41-11.92-.8-5.45-1.19-13.17-1.19-23.17v-17.04c.22-3.63,1.19-6.64,2.9-9.03,1.7-2.38,5.16-3.58,10.39-3.58,5.9,0,10.79,1.08,14.65,3.24,3.86,2.16,6.93,5,9.2,8.52,2.27,3.53,3.86,7.67,4.77,12.44.9,4.77,1.36,9.77,1.36,14.99,0,8.86-1.93,16.24-5.79,22.15Z"/>
      <path class="cls-1" d="M13.72,249.74c2.54,3.51,5.41,6.2,8.62,8.07,4.45,2.59,9.16,3.86,14.14,3.83,4.98-.03,9.83-.99,14.56-2.87,3.15-1.25,6.02-2.73,8.61-4.43,2.58-1.69,4.95-3.44,7.09-5.23,2.14-1.79,4.09-3.52,5.84-5.21,1.75-1.68,3.42-3.08,5-4.2,1.59-1.12,3.11-1.83,4.56-2.15,1.45-.31,2.92-.04,4.4.82,1.16.67,1.91,1.6,2.26,2.8.35,1.2.45,2.44.31,3.73-.15,1.29-.43,2.54-.84,3.73-.42,1.19-.82,2.12-1.2,2.78-2.2,3.79-4.54,6.68-7.01,8.66-2.47,1.98-4.93,3.42-7.38,4.31-2.44.89-4.85,1.43-7.21,1.6-2.36.17-4.54.32-6.53.42-1.99.11-3.77.37-5.33.79-1.56.41-2.78,1.36-3.64,2.85-1.1,1.9-1.18,3.64-.23,5.24.95,1.6,2.24,2.87,3.89,3.83,1.57.91,3.59,1.84,6.07,2.78,2.48.95,5.04,1.72,7.67,2.31,2.63.59,5.22.88,7.76.87,2.54-.01,4.66-.52,6.34-1.52,1.99-1.16,4.09-2.78,6.29-4.86,2.2-2.08,4.33-4.32,6.38-6.71,2.05-2.39,3.96-4.83,5.74-7.33,1.78-2.49,3.27-4.77,4.46-6.83,4.16-7.17,6.82-13.87,7.96-20.1,1.14-6.23,1.2-11.84.19-16.84-1.01-4.99-2.91-9.32-5.69-12.98-2.78-3.65-5.99-6.53-9.61-8.64-4.7-2.73-9.2-4.08-13.52-4.05-4.32.03-8.87,1.24-13.68,3.63-4.5,2.24-8.37,4.87-11.61,7.89-3.24,3.02-6.18,5.81-8.82,8.35-2.64,2.55-5.08,4.43-7.34,5.66-2.26,1.23-4.62,1.12-7.09-.32-2.23-1.29-3.32-3.06-3.29-5.3.03-2.24.6-4.31,1.7-6.2,1.87-3.21,4.23-5.56,7.07-7.05,2.85-1.49,5.69-2.67,8.52-3.57,2.83-.89,5.5-1.79,8.02-2.7,2.51-.91,4.37-2.4,5.56-4.46,1.34-2.31,1.52-4.6.53-6.88-.99-2.28-2.55-4.05-4.7-5.29-2.55-1.48-5.33-2.4-8.31-2.76-2.99-.36-5.79-.33-8.4.08-2.61.41-4.89,1.07-6.85,1.97-1.96.9-3.25,1.89-3.87,2.96-.76,1.32-1.17,2.58-1.2,3.77-.03,1.19-.31,2.24-.84,3.15-.29.5-.98,1.25-2.07,2.27-1.09,1.02-2.36,2.26-3.82,3.73-1.46,1.47-2.96,3.1-4.5,4.91-1.54,1.8-2.89,3.69-4.04,5.67-3.5,6.02-5.65,11.82-6.47,17.4-.82,5.59-.73,10.71.25,15.36.99,4.65,2.75,8.74,5.29,12.25Z"/>
      <path class="cls-1" d="M67.71,155.57c1.38,3.2,3.11,5.92,5.17,8.16,1.74,1.89,3.92,3.1,6.52,3.61,2.61.51,4.93-.16,6.97-2.03,2.11-1.94,3.3-4.23,3.58-6.88.28-2.65.26-5.25-.08-7.79-.33-2.54-.6-4.91-.81-7.12-.21-2.2.28-3.85,1.47-4.95.35-.32.79-.62,1.3-.91.52-.28,1.26-.25,2.22.09.96.35,2.23,1.19,3.79,2.54,1.56,1.35,3.57,3.42,6.01,6.22l20.54,24.04c.58.63,1.32,1.51,2.22,2.62.9,1.12,1.78,2.29,2.63,3.5.86,1.22,1.65,2.4,2.38,3.54.73,1.14,1.21,2.13,1.45,2.94.34,1.5.22,2.88-.38,4.13-.59,1.26-1.22,2.48-1.87,3.66-.66,1.19-1.08,2.38-1.26,3.59-.19,1.21.37,2.51,1.66,3.91,1.23,1.33,2.75,2.01,4.57,2.01,1.82.01,3.8-.41,5.92-1.27,2.13-.85,4.28-1.99,6.47-3.42,2.19-1.43,4.27-2.92,6.26-4.49,1.99-1.57,3.77-3.08,5.35-4.53,1.58-1.45,2.82-2.59,3.74-3.43,4.91-4.51,8.56-8.36,10.96-11.53,2.39-3.17,3.97-5.82,4.74-7.95.77-2.13.94-3.84.52-5.14-.42-1.3-1.01-2.37-1.79-3.21-1.1-1.19-2.17-1.86-3.2-2.01-1.04-.14-2.07-.07-3.1.22-1.02.29-2.09.69-3.19,1.18-1.1.49-2.27.77-3.52.81-1.25.05-2.65-.28-4.21-.99-1.55-.71-3.3-2.11-5.23-4.22l-29.7-32.32c-.19-.21-.61-.67-1.26-1.37-.64-.7-1.22-1.53-1.72-2.5-.5-.97-.78-1.97-.83-3.02-.06-1.05.44-2.06,1.49-3.02,1.33-1.23,3-1.56,5-1,2,.56,4.16,1.19,6.5,1.89,2.33.71,4.73,1.13,7.18,1.26,2.46.14,4.84-.86,7.16-2.99,2.67-2.45,3.96-5.09,3.87-7.93-.08-2.84-1.35-5.59-3.8-8.25-2.58-2.81-5.44-4.97-8.58-6.48-3.14-1.51-6.16-2.55-9.08-3.11-2.91-.56-5.52-.65-7.83-.28-2.31.37-3.99,1.05-5.04,2.01-.98.9-1.69,1.68-2.12,2.34-.43.66-.94,1.45-1.52,2.36-.64.85-1.5,1.93-2.56,3.23-1.07,1.31-2.72,2.99-4.97,5.05l-25.89,23.8c-2.11,1.94-3.97,3.49-5.61,4.67-1.63,1.18-3.01,2.15-4.12,2.91-1.18.69-2.14,1.26-2.9,1.7-.76.44-1.32.82-1.67,1.14-1.47,1.35-2.42,3.42-2.84,6.2-.42,2.78-.36,5.8.17,9.06.54,3.26,1.5,6.49,2.88,9.68Z"/>
      <path class="cls-1" d="M159.69,64.43c.63,1.49,1.61,2.5,2.92,3.03,1.31.53,2.7,1,4.17,1.41,1.47.41,2.87,1.03,4.21,1.87,1.34.83,2.41,2.32,3.21,4.46l12.89,30.4c.11.26.56,1.5,1.34,3.7.78,2.21,2.08,4.73,3.91,7.58,1.83,2.85,4.29,5.71,7.37,8.6,3.08,2.89,6.97,5.09,11.66,6.62,4.69,1.53,10.28,2.09,16.78,1.66,6.5-.42,14.04-2.46,22.64-6.11,7.55-3.2,13.59-6.7,18.15-10.49,4.55-3.79,7.99-7.63,10.33-11.52,2.34-3.89,3.78-7.68,4.33-11.39.55-3.7.65-7.13.29-10.3-.36-3.16-.95-5.89-1.76-8.18-.82-2.29-1.43-3.92-1.84-4.89l-15.07-35.54c-1.26-2.98-1.65-5.3-1.16-6.96.49-1.65,1.23-3.08,2.22-4.28.99-1.2,1.85-2.34,2.59-3.43.73-1.09.7-2.55-.08-4.39-.82-1.93-2.23-3.06-4.24-3.4-2.01-.34-4.16-.3-6.48.11-2.31.41-4.58,1.04-6.81,1.88-2.23.84-3.96,1.52-5.19,2.05-1.32.56-3.13,1.35-5.44,2.38-2.31,1.03-4.47,2.26-6.51,3.69-2.03,1.43-3.65,3.05-4.85,4.85-1.2,1.81-1.38,3.72-.52,5.73.82,1.93,1.95,2.95,3.4,3.06,1.45.11,3.01.2,4.69.26,1.68.06,3.42.57,5.22,1.51,1.8.95,3.44,3.17,4.93,6.68l13.9,32.77c.15.35.58,1.56,1.31,3.64.73,2.08.97,4.48.73,7.22-.24,2.74-1.33,5.59-3.29,8.54-1.96,2.95-5.53,5.53-10.7,7.72-7.02,2.98-13.08,2.8-18.16-.53-5.09-3.33-9.28-8.9-12.6-16.71l-10.27-24.22c-1.03-2.67-1.57-4.85-1.61-6.54-.04-1.69.16-3.04.61-4.06.45-1.02,1.05-1.85,1.82-2.48.76-.63,1.42-1.28,1.98-1.93.55-.65.92-1.42,1.11-2.33.18-.9-.06-2.15-.73-3.73-.56-1.32-1.4-2.38-2.52-3.2-1.12-.82-2.8-1.22-5.02-1.21-2.22.01-5.12.49-8.71,1.44-3.58.95-8.05,2.56-13.4,4.83-6.76,2.87-11.74,5.45-14.96,7.74-3.22,2.3-5.35,4.29-6.4,5.97-1.05,1.69-1.42,3.06-1.12,4.13.3,1.07.54,1.82.72,2.26Z"/>
      <path class="cls-1" d="M302.69,15.63c.83.39,1.7.73,2.63,1.02.92.29,1.78.8,2.58,1.52.8.73,1.49,1.74,2.08,3.05.59,1.31.89,3.2.92,5.68l1.24,49.61c.07,3.53-.13,6.21-.61,8.04-.48,1.84-1.16,3.23-2.02,4.18-.86.95-1.78,1.59-2.77,1.92-.99.33-1.88.66-2.67.99-.8.33-1.46.84-2,1.53-.54.69-.77,1.9-.69,3.61.07,1.43.46,2.65,1.18,3.67.72,1.02,1.64,1.81,2.76,2.37,1.12.57,2.34.99,3.64,1.26,1.3.27,2.57.38,3.81.32,4.09-.2,8.13-.53,12.12-1.01,1.99-.19,4.01-.36,6.06-.51,2.05-.15,4.07-.27,6.07-.36,2-.1,4-.17,6-.22,2-.05,4.1-.08,6.29-.09,4.39.07,9.64-.03,15.73-.33,9.04-.43,16.76-2.24,23.14-5.41,6.38-3.17,11.55-7.26,15.51-12.27,3.96-5.01,6.79-10.65,8.49-16.94,1.7-6.28,2.39-12.76,2.07-19.42-.31-6.38-1.49-12.55-3.54-18.51-2.05-5.96-5.24-11.2-9.56-15.71-4.32-4.52-9.93-8.02-16.82-10.5-6.9-2.48-15.29-3.49-25.19-3.01l-46.55,2.24c-1.24.06-2.62.22-4.13.48-1.52.26-2.95.69-4.3,1.28-1.36.59-2.46,1.41-3.32,2.45-.86,1.04-1.24,2.37-1.17,3.99.07,1.52.39,2.65.95,3.39.56.74,1.25,1.3,2.09,1.69ZM345.09,20.75c.05-1,.27-1.82.67-2.46.4-.64,1.02-1.14,1.86-1.52.84-.37,2.02-.6,3.55-.67,2.76-.13,5.56.19,8.42.95,2.85.77,5.46,2.48,7.83,5.13,2.37,2.65,4.39,6.47,6.06,11.45,1.67,4.98,2.71,11.66,3.11,20.03.17,3.62.09,7.35-.25,11.18-.34,3.83-1.2,7.41-2.56,10.71-1.37,3.31-3.38,6.06-6.05,8.23-2.66,2.18-6.23,3.38-10.71,3.59-1.9.09-3.46-.02-4.67-.35-1.21-.32-2.14-.9-2.8-1.73-.66-.83-1.12-1.88-1.37-3.16-.25-1.28-.42-2.82-.51-4.63l-2.56-53.26c-.07-1.33-.07-2.5-.03-3.51Z"/>
      <path class="cls-1" d="M442.84,106.07c1.8,1.7,4.55,3.54,8.26,5.52,3.71,1.98,8.91,4.08,15.61,6.29,1.63.54,4.04,1.28,7.24,2.24,3.2.96,6.44,1.63,9.72,2.01,3.28.39,6.3.3,9.04-.25,2.74-.55,4.52-2.05,5.32-4.49.54-1.63.56-2.98.06-4.05-.5-1.07-1.18-2.05-2.04-2.93-.86-.89-1.71-1.74-2.54-2.57-.83-.83-1.31-1.81-1.43-2.96-.22-1.48.03-3.8.73-6.99.7-3.18,2.09-7.89,4.15-14.14.78-2.35,1.51-4.42,2.2-6.2.69-1.78,1.51-3.36,2.48-4.75.96-1.39,2.1-2.71,3.43-3.98,1.32-1.27,3.07-2.6,5.24-3.99l22.75-12.8c2.32-1.24,4.55-1.83,6.69-1.78,2.14.06,4.08.17,5.83.35,1.75.18,3.29.08,4.61-.28,1.33-.36,2.35-1.63,3.07-3.8.48-1.45.57-2.8.29-4.05-.29-1.25-1.15-2.46-2.56-3.63-1.42-1.17-3.47-2.35-6.14-3.53-2.67-1.19-6.13-2.48-10.38-3.89-1.27-.42-3.09-.97-5.47-1.66-2.38-.69-4.81-1.16-7.28-1.43-2.47-.26-4.73-.13-6.76.4-2.04.53-3.38,1.79-4.04,3.78-.42,1.27-.55,2.35-.4,3.26.15.9.38,1.73.68,2.48.3.75.55,1.51.75,2.28.2.77.15,1.61-.15,2.51-.27.82-.92,1.71-1.94,2.67-1.02.97-2.19,1.84-3.5,2.61-1.31.77-2.62,1.37-3.91,1.79-1.3.43-2.4.49-3.3.19-.81-.27-1.6-1.03-2.33-2.28-.74-1.25-1.36-2.66-1.84-4.22-.49-1.57-.81-3.1-.96-4.61-.16-1.51-.11-2.62.13-3.35.24-.72.65-1.29,1.24-1.7.59-.41,1.2-.83,1.85-1.27.65-.44,1.28-.91,1.9-1.41.61-.5,1.07-1.2,1.37-2.11.24-.72.38-1.61.42-2.65.04-1.04-.66-2.27-2.09-3.7-1.44-1.43-3.96-3.06-7.56-4.91-3.61-1.84-8.94-3.93-16-6.27-7.87-2.6-14.03-4.26-18.46-4.97-4.43-.71-7.74-.9-9.9-.56-2.17.34-3.54.99-4.11,1.95-.57.97-.99,1.86-1.26,2.67-.54,1.63-.44,2.99.3,4.09.74,1.1,1.75,2.21,3.04,3.34,1.29,1.13,2.7,2.45,4.26,3.97,1.56,1.52,2.83,3.5,3.83,5.94l9.46,22.85c.66,1.93,1.19,3.61,1.57,5.04.38,1.43.6,2.81.67,4.14.06,1.33-.05,2.72-.33,4.18-.29,1.46-.74,3.14-1.37,5.04-2.19,6.61-4.03,11.57-5.53,14.89-1.5,3.32-2.87,5.63-4.1,6.93-1.08,1.15-2.28,1.81-3.59,1.97-1.31.17-2.62.32-3.91.44-1.3.12-2.48.44-3.55.94-1.07.5-1.9,1.66-2.5,3.47-.3.9-.32,2.03-.06,3.37.26,1.34,1.28,2.86,3.08,4.56Z"/>
      <path class="cls-1" d="M541.91,105.56c-2.08.42-4.06,1.24-5.92,2.48-1.86,1.24-3.47,2.77-4.82,4.61-3.06,4.14-4.51,8.43-4.35,12.87.15,4.44,1.25,8.74,3.27,12.9,2.02,4.16,4.7,8.03,8.04,11.62,3.33,3.59,6.69,6.63,10.06,9.12,1.07.79,2.68,1.83,4.81,3.11,2.14,1.28,4.62,2.49,7.45,3.63,2.83,1.14,5.91,2.02,9.24,2.65,3.33.62,6.73.71,10.21.25,3.47-.46,6.96-1.64,10.45-3.57,3.49-1.92,6.81-4.86,9.97-8.81l27.07-34.74c1.83-2.32,3.64-3.68,5.42-4.09,1.78-.4,3.47-.49,5.07-.25,1.6.24,3.09.39,4.46.45,1.37.07,2.63-.67,3.76-2.2.57-.77.97-1.83,1.21-3.2.24-1.36-.14-3.1-1.14-5.2-1-2.1-2.89-4.62-5.69-7.58-2.8-2.95-6.92-6.44-12.36-10.46-5.6-4.13-10.27-6.96-14-8.47-3.74-1.52-6.74-2.31-9-2.38-2.26-.07-3.96.31-5.1,1.13-1.14.82-1.9,1.5-2.3,2.03-.96,1.3-1.39,2.44-1.27,3.41.11.97.45,1.91,1.03,2.81.58.9,1.24,1.81,1.99,2.72.75.91,1.3,1.94,1.64,3.08.34,1.14.32,2.46-.07,3.95-.39,1.49-1.42,3.28-3.07,5.37-2.7,3.34-5.28,6.83-7.73,10.47-2.45,3.64-4.8,7.18-7.04,10.62-2.25,3.44-4.46,6.6-6.65,9.49-2.19,2.89-4.37,5.24-6.55,7.07-2.18,1.83-4.41,2.96-6.69,3.41-2.28.45-4.62-.04-7.02-1.45-1.49-.86-2.46-2.05-2.89-3.55-.43-1.5-.11-2.98.97-4.44.56-.77,1.32-1.51,2.27-2.23.95-.72,1.79-1.58,2.53-2.58,1.36-1.84,2.16-3.73,2.41-5.68.25-1.95.11-3.88-.42-5.82-.53-1.93-1.4-3.73-2.6-5.38-1.21-1.66-2.65-3.11-4.34-4.36-1.92-1.42-3.93-2.34-6.04-2.77-2.11-.43-4.21-.44-6.29-.02Z"/>
      <path class="cls-1" d="M617.52,172.52c-3.63,5.99-5.92,12.28-6.88,18.89-.97,6.6-.62,13.32,1.05,20.16,1.66,6.83,4.68,13.32,9.06,19.44,4.21,5.89,9.28,10.91,15.22,15.04,5.94,4.13,12.24,7.01,18.91,8.63,6.66,1.62,13.45,1.9,20.36.83,6.91-1.07,13.5-3.85,19.79-8.34,2.48-1.77,5.03-4.11,7.63-7.03,2.6-2.91,4.97-6.28,7.11-10.09,2.14-3.81,3.89-7.99,5.27-12.55,1.37-4.55,2.06-9.32,2.07-14.31,0-4.99-.79-10.12-2.4-15.41-1.61-5.29-4.33-10.61-8.15-15.96-4.54-6.36-9.81-11.53-15.81-15.5-6-3.97-12.3-6.65-18.9-8.02-6.6-1.37-13.32-1.38-20.13-.02-6.82,1.36-13.3,4.23-19.42,8.6-6.21,4.43-11.12,9.64-14.75,15.63ZM642.19,208.39c1.22-3.04,2.83-6.12,4.82-9.24,1.99-3.12,4.11-6.04,6.38-8.78,2.26-2.73,4.52-5.19,6.76-7.38,2.24-2.19,4.18-3.87,5.81-5.03,1.4-1,2.97-1.83,4.72-2.49,1.75-.66,3.52-1.02,5.3-1.06,1.78-.04,3.51.28,5.17.96,1.66.69,3.07,1.84,4.24,3.47,1.61,2.25,2.4,4.79,2.37,7.62-.03,2.83-.62,5.77-1.78,8.83-1.16,3.05-2.74,6.12-4.76,9.2-2.02,3.08-4.16,5.98-6.42,8.72-2.26,2.73-4.53,5.17-6.8,7.32-2.27,2.15-4.3,3.86-6.08,5.14-1.55,1.11-3.22,2.01-5.01,2.7-1.79.69-3.56,1.05-5.3,1.06-1.75.02-3.42-.37-5.03-1.15-1.61-.78-3.06-2.07-4.33-3.85-1.5-2.09-2.18-4.53-2.06-7.31.12-2.78.8-5.69,2.02-8.73Z"/>
      <path class="cls-1" d="M56.1,622.15c1.99-1.05,3.62-2.39,4.9-4.01,1.28-1.62,2.23-3.32,2.85-5.09.62-1.77,1.02-3.5,1.2-5.19.17-1.69.2-3.12.07-4.29-.02-.65,0-1.25.03-1.8.04-.56.37-1,1.02-1.34.64-.34,1.23-.43,1.77-.26.54.17,1.12.37,1.74.62,2.33.98,4.81,1.36,7.43,1.12,2.62-.24,5.06-.95,7.31-2.14,1.86-.99,3.55-2.29,5.07-3.92,1.52-1.63,2.59-3.67,3.22-6.14.62-2.47.66-5.38.11-8.75-.55-3.37-2-7.26-4.34-11.69-.58-1.09-1.2-2.19-1.88-3.32-.67-1.12-1.33-2.21-1.97-3.27-.71-1.02-1.39-2.08-2.05-3.17-.66-1.09-1.29-2.21-1.91-3.37-.95-1.8-1.86-3.59-2.73-5.39-.87-1.8-1.72-3.63-2.54-5.49-.89-1.83-1.77-3.65-2.64-5.44-.87-1.8-1.78-3.6-2.73-5.39-.41-.77-.94-1.5-1.59-2.18-.65-.68-1.38-1.24-2.18-1.68-.81-.44-1.66-.7-2.58-.79-.91-.09-1.82.1-2.72.58-1.09.58-1.77,1.2-2.03,1.87-.26.67-.37,1.37-.32,2.08.05.71.12,1.5.2,2.36.09.86-.07,1.76-.47,2.71-.4.95-1.18,1.96-2.34,3.03-1.16,1.07-3,2.18-5.5,3.34l-28.28,13.62c-2.76,1.3-5.01,2.18-6.73,2.64-1.73.46-3.14.66-4.25.59-1.11-.07-1.99-.3-2.65-.69-.66-.39-1.25-.74-1.78-1.03-.53-.3-1.08-.49-1.67-.59-.59-.1-1.39.12-2.42.66-1.67.88-2.57,2.24-2.7,4.08-.14,1.84.19,3.49.97,4.97,1.77,3.34,3.61,6.59,5.54,9.76.95,1.63,1.87,3.26,2.77,4.88.9,1.62,1.79,3.26,2.67,4.93.78,1.47,1.54,2.94,2.27,4.4.73,1.46,1.46,2.94,2.18,4.46,1.34,2.99,2.85,6.09,4.55,9.29,2.55,4.81,5.37,8.51,8.47,11.1,3.1,2.59,6.21,4.35,9.33,5.29,3.12.93,6.18,1.16,9.18.69,2.99-.48,5.71-1.36,8.15-2.65ZM55.05,573.04c.83-.69,2.17-1.52,4.03-2.51l7.8-4.13c.7-.37,1.39-.74,2.07-1.1.67-.36,1.32-.6,1.96-.73.63-.13,1.22-.05,1.78.22.56.28,1.08.87,1.55,1.77.71,1.35.99,2.62.84,3.8-.15,1.19-.56,2.29-1.21,3.29-.66,1.01-1.52,1.91-2.57,2.72-1.05.8-2.12,1.49-3.21,2.07-1.35.71-2.64,1.27-3.86,1.67-1.23.4-2.4.55-3.52.45-1.12-.1-2.17-.49-3.14-1.17-.97-.68-1.84-1.72-2.58-3.13-.78-1.47-.76-2.56.07-3.24ZM46.21,590.79c-.66,1.17-1.59,2.24-2.8,3.21-1.21.97-2.56,1.85-4.03,2.63-2.5,1.33-4.88,1.89-7.12,1.68-2.25-.21-4.1-1.69-5.56-4.45-.41-.77-.69-1.48-.83-2.15-.15-.66.02-1.39.51-2.18.48-.79,1.44-1.71,2.86-2.75,1.42-1.04,3.54-2.31,6.36-3.8l4.81-2.55c1.06-.48,2.06-.66,2.98-.53.93.12,1.78.92,2.57,2.4.88,1.67,1.31,3.21,1.28,4.62s-.37,2.7-1.03,3.87Z"/>
      <path class="cls-1" d="M115.67,675.82c-.18-1.73-.63-3.55-1.35-5.44-.22-.68-.4-1.35-.54-2-.14-.65.08-1.24.68-1.77.49-.44.94-.61,1.34-.54.41.08.89.21,1.44.39,3.11,1.31,6.27,1.58,9.48.81,3.21-.77,6.03-2.24,8.47-4.41,2.71-2.42,4.48-5.07,5.31-7.95.84-2.88.98-5.81.43-8.77-.55-2.96-1.6-5.86-3.16-8.7-1.56-2.84-3.35-5.4-5.38-7.68-1.16-1.3-2.36-2.59-3.6-3.87-1.24-1.28-2.47-2.55-3.68-3.8-1.32-1.26-2.58-2.51-3.79-3.77-1.21-1.25-2.4-2.53-3.56-3.83-.72-.81-1.43-1.66-2.13-2.55-.7-.89-1.35-1.79-1.97-2.7-.72-.91-1.41-1.8-2.08-2.66-.67-.86-1.39-1.73-2.17-2.59-.72-.81-1.64-1.73-2.73-2.74-1.1-1.02-2.26-1.85-3.48-2.51-1.22-.66-2.47-1.06-3.75-1.18-1.28-.13-2.49.32-3.62,1.33-.87.77-1.35,1.47-1.43,2.08-.09.61-.03,1.25.16,1.9.19.65.41,1.36.65,2.12.24.76.24,1.66,0,2.7-.24,1.04-.82,2.24-1.75,3.6-.93,1.36-2.45,2.98-4.56,4.87l-23.17,20.65c-1.79,1.59-3.35,2.71-4.67,3.36-1.32.64-2.51,1.02-3.58,1.14-1.06.12-2,.08-2.81-.12-.81-.2-1.56-.41-2.24-.63-.68-.22-1.35-.31-1.99-.27-.65.04-1.32.38-2.03,1-1.46,1.3-2.05,2.94-1.75,4.91.3,1.97,1.01,3.97,2.12,5.98,1.12,2.02,2.42,3.92,3.92,5.7,1.49,1.78,2.67,3.16,3.54,4.14,2.95,3.3,5.44,5.83,7.47,7.56,2.03,1.74,3.75,2.95,5.15,3.65,1.4.7,2.57.94,3.51.74.93-.2,1.78-.64,2.54-1.32.98-.87,1.5-1.73,1.58-2.57.07-.84.02-1.7-.16-2.56-.18-.86-.29-1.74-.31-2.64-.03-.9.35-1.84,1.13-2.83.94-1.23,2.11-2.54,3.5-3.93,1.39-1.39,2.68-2.61,3.87-3.67,1.3-1.16,2.34-2.01,3.12-2.56.78-.55,1.43-.88,1.95-1.01.52-.12.97-.06,1.34.19.37.25.75.59,1.14,1.03,1.02,1.14,1.64,2.28,1.89,3.43.24,1.15.24,2.26,0,3.36-.24,1.09-.67,2.2-1.27,3.32-.61,1.12-1.27,2.2-2,3.24-2.13,3.07-4.03,5.9-5.69,8.51-1.67,2.6-2.77,5.22-3.3,7.83-.54,2.62-.38,5.3.47,8.05.84,2.75,2.72,5.75,5.62,9,2.03,2.28,3.97,4.07,5.82,5.39,1.85,1.31,3.54,2.22,5.05,2.72,1.51.5,2.87.65,4.06.46,1.19-.19,2.17-.62,2.93-1.3,1.25-1.11,1.75-2.07,1.52-2.88-.24-.81-.56-1.67-.97-2.56-.41-.9-.64-1.97-.67-3.2-.03-1.24.8-2.81,2.51-4.72,1.92-2.2,3.48-4.27,4.68-6.21,1.19-1.94,2.03-3.78,2.51-5.52.49-1.75.64-3.49.45-5.22ZM107.08,647.45c-2.28.23-4.6-.98-6.97-3.64-.58-.65-.91-1.23-.98-1.75-.07-.52.02-.99.28-1.41.26-.42.62-.82,1.11-1.21.48-.38,1.02-.79,1.61-1.22l8.01-6.56c.7-.53,1.32-1.01,1.86-1.44.54-.43,1.1-.73,1.67-.91.58-.17,1.15-.15,1.73.06.58.22,1.21.7,1.89,1.46,1.06,1.19,1.69,2.36,1.88,3.5.19,1.14.09,2.26-.31,3.34-.4,1.09-1.01,2.14-1.84,3.17-.83,1.03-1.73,1.98-2.71,2.85-2.55,2.27-4.96,3.52-7.23,3.75Z"/>
      <path class="cls-1" d="M194.56,683.14c-1-1.97-2.51-3.62-4.5-4.94-2-1.32-3.89-2.18-5.67-2.58-1.78-.39-3.43-.37-4.94.07-1.51.44-2.9,1.19-4.18,2.27-1.28,1.07-2.43,2.4-3.47,3.97-1.2,1.82-2.63,3.51-4.27,5.08-1.65,1.57-3.4,3.06-5.25,4.49-1.86,1.43-3.75,2.77-5.66,4.02-1.92,1.26-3.76,2.43-5.53,3.53l-13.95,8.66c-1.63,1.01-3.53,2.17-5.7,3.48-2.17,1.31-4.17,2.23-6,2.76-1.23.41-2.39.49-3.49.24-1.1-.25-2.14-.45-3.11-.62-.98-.17-1.89-.2-2.74-.11-.84.09-1.63.69-2.35,1.78-.48.73-.79,1.5-.94,2.31-.15.82.07,1.79.67,2.93.6,1.14,1.75,2.46,3.44,3.97,1.7,1.51,4.18,3.35,7.45,5.51.91.6,2.14,1.37,3.69,2.31,1.55.94,3.18,1.71,4.87,2.31,1.69.6,3.31.88,4.85.86,1.54-.03,2.77-.73,3.69-2.13.76-1.15.99-2.15.68-3.01-.31-.86-.75-1.63-1.34-2.32-.59-.69-1.1-1.38-1.52-2.05-.43-.67-.34-1.46.26-2.37.72-1.09,1.46-1.84,2.21-2.26.75-.42,1.56-.56,2.43-.42.86.14,1.77.48,2.72,1.02.95.54,2.03,1.21,3.24,2.01,3.63,2.4,6.54,4.39,8.72,5.96,2.18,1.57,3.76,2.9,4.74,3.98.98,1.09,1.48,2.04,1.49,2.88.01.84-.32,1.77-1,2.8-.52.79-1.17,1.14-1.94,1.07-.78-.08-1.6-.21-2.48-.4-.88-.19-1.75-.25-2.63-.17-.88.07-1.67.66-2.4,1.75-.92,1.39-1.17,2.79-.75,4.2.42,1.41,1.4,2.88,2.95,4.43,1.54,1.54,3.59,3.2,6.12,4.96,2.53,1.76,5.44,3.73,8.71,5.89,1.15.76,2.7,1.77,4.66,3.02,1.96,1.25,4.02,2.31,6.19,3.18,2.17.87,4.24,1.32,6.21,1.37,1.97.04,3.5-.75,4.58-2.39.84-1.27,1.11-2.27.8-2.99-.31-.73-.78-1.45-1.43-2.19-.65-.73-1.26-1.68-1.84-2.85-.58-1.17-.65-2.87-.22-5.11.26-1.57.59-3.83,1.02-6.77.42-2.94.88-6.16,1.37-9.67.49-3.51.97-7.13,1.44-10.87.47-3.74.9-7.19,1.3-10.37.4-3.17.72-5.9.96-8.17.24-2.28.38-3.71.42-4.29.09-2.12.15-4.34.17-6.68.02-2.34-.19-4.65-.63-6.95-.44-2.29-1.17-4.43-2.17-6.39ZM171.92,708c-.06.75-.12,1.36-.17,1.84-.02.42-.08,1.1-.17,2.04-.1.94-.2,1.91-.31,2.93-.11,1.02-.24,1.95-.41,2.8-.17.85-.37,1.45-.61,1.82-.24.36-.56.52-.97.47-.4-.05-.82-.17-1.26-.37-.44-.2-.85-.43-1.24-.69-.4-.26-.71-.47-.95-.63l-6.81-4.51c-.24-.16-.54-.36-.91-.6-.36-.24-.71-.51-1.03-.81-.33-.3-.55-.62-.67-.96-.12-.34-.06-.69.18-1.06.16-.24.5-.58,1.01-1.03.51-.45,1.08-.87,1.7-1.29.62-.42,1.2-.82,1.72-1.21.52-.39.92-.67,1.2-.84.22-.2.68-.57,1.39-1.11.7-.53,1.49-1.06,2.35-1.58.86-.52,1.71-.91,2.55-1.19.84-.28,1.52-.23,2.07.13.48.32.84.81,1.05,1.48.21.66.33,1.37.35,2.13.02.76,0,1.51-.05,2.25Z"/>
      <path class="cls-1" d="M299.06,728.45c-1.67-.96-3.47-1.78-5.39-2.44-1.92-.66-3.5-1.2-4.75-1.6-1.24-.41-2.92-.93-5.04-1.58-2.12-.65-4.25-1.1-6.38-1.33-2.14-.24-4.11-.1-5.92.42-1.81.52-3.03,1.75-3.66,3.68-.18.55-.26,1.08-.23,1.59.03.51.08,1,.15,1.48.07.48.13.96.17,1.43.04.47-.03.98-.21,1.53-.2.62-.98,1.49-2.34,2.62-1.36,1.12-2.87,2.24-4.52,3.34-1.66,1.1-3.29,2.02-4.91,2.76-1.61.73-2.77.99-3.46.76-.48-.16-.79-.43-.93-.82-.14-.39-.2-.85-.18-1.38.02-.53.09-1.04.21-1.53.12-.49.24-.91.35-1.26.99-3.04,2-5.15,3.04-6.34,1.04-1.19,2.03-2.01,2.98-2.47.95-.45,1.8-.84,2.56-1.17.76-.33,1.36-1.18,1.81-2.56.58-1.79.45-3.37-.41-4.71-.86-1.35-2.05-2.5-3.57-3.45-1.52-.95-3.15-1.75-4.89-2.39s-3.23-1.17-4.47-1.57c-5.66-1.84-10.08-2.94-13.25-3.28-3.17-.35-5.55-.32-7.13.08-1.58.4-2.58.99-2.98,1.78-.41.78-.68,1.38-.81,1.8-.52,1.59-.57,2.75-.17,3.5.41.74.92,1.46,1.53,2.16.61.7,1.15,1.62,1.62,2.76.47,1.14.51,2.88.14,5.2-.48,3.36-1.26,6.8-2.34,10.35-1.08,3.54-2.14,6.94-3.2,10.18-.97,2.97-2.02,6.02-3.15,9.17-1.14,3.14-2.42,6.08-3.85,8.83-1.04,2.03-2.06,3.4-3.05,4.1-1,.71-1.94,1.2-2.83,1.48-.89.28-1.71.61-2.44.98-.73.37-1.31,1.22-1.74,2.53-.29.9-.37,1.79-.24,2.67.13.88.74,1.83,1.83,2.83,1.09,1,2.8,2.06,5.15,3.17,2.35,1.11,5.56,2.33,9.64,3.65,4.56,1.48,8.25,2.49,11.09,3.04,2.84.54,5.07.73,6.69.57,1.62-.16,2.77-.55,3.47-1.16.69-.61,1.18-1.33,1.45-2.16.4-1.24.39-2.37-.04-3.39-.44-1.02-.93-2-1.5-2.95-.57-.95-1.08-1.91-1.52-2.9-.44-.98-.46-2.1-.06-3.34l.71-2.18c.49-1.52,1.1-2.79,1.82-3.82.71-1.03,1.76-1.31,3.14-.87.62.2,1.28.86,1.99,1.97.71,1.11,1.4,2.38,2.08,3.82.68,1.44,1.29,2.84,1.84,4.21.55,1.36.95,2.35,1.21,2.97l4.24,10.89c.63,1.58,1.14,2.83,1.52,3.76.39.93.77,1.67,1.17,2.21.39.55.87.95,1.44,1.21.56.26,1.36.56,2.4.9l17.61,5.73c1.03.34,2.1.63,3.21.87,1.1.24,2.19.33,3.24.25,1.06-.07,2-.4,2.83-.97.83-.57,1.47-1.51,1.89-2.82.52-1.59.56-2.91.14-3.96-.42-1.05-1.03-2.04-1.84-2.95-.81-.91-1.67-1.78-2.58-2.62-.91-.83-1.61-1.82-2.07-2.97l-13.59-31.79c-.51-1.24-1.05-2.63-1.61-4.19-.56-1.56-.62-3.03-.17-4.41.36-1.1,1.21-2.13,2.55-3.07,1.34-.94,2.82-1.81,4.46-2.61,1.64-.8,3.2-1.5,4.69-2.08,1.49-.58,2.6-1.06,3.33-1.44,1.19-.6,2.6-.68,4.25-.22,1.64.46,3.26.89,4.85,1.29,1.59.4,3.07.47,4.46.19,1.38-.27,2.43-1.48,3.12-3.62.61-1.86.4-3.48-.6-4.83-1.01-1.36-2.35-2.52-4.02-3.48Z"/>
      <path class="cls-1" d="M378.68,786.86c-1.52-.11-2.69.2-3.5.9-.81.71-1.57,1.6-2.26,2.68-.69,1.08-1.43,2.27-2.21,3.56-.78,1.29-1.88,2.45-3.3,3.48-1.42,1.03-3.29,1.85-5.63,2.45-2.33.6-5.35.78-9.04.52-2.83-.19-5.07-.38-6.73-.57-1.66-.19-2.9-.76-3.7-1.73-.81-.96-1.25-2.49-1.32-4.57-.07-2.08.03-5.11.3-9.09.06-.87.14-1.75.24-2.66.1-.9.3-1.71.6-2.41.3-.71.78-1.27,1.43-1.7.65-.43,1.55-.6,2.71-.52,1.81.13,3.17.51,4.07,1.16.9.65,1.54,1.4,1.92,2.26.38.86.6,1.79.68,2.78.08.99.2,1.91.36,2.75.16.85.45,1.58.89,2.19.43.61,1.19.95,2.27,1.03,1.59.11,2.93-.51,4-1.85,1.07-1.34,1.93-2.94,2.57-4.79.64-1.85,1.1-3.76,1.38-5.75.28-1.98.46-3.52.54-4.6.07-1.09.12-2.56.14-4.41.02-1.85-.13-3.68-.44-5.49-.31-1.8-.88-3.41-1.69-4.81-.81-1.4-2.02-2.16-3.61-2.27-1.3-.09-2.27.14-2.88.67-.62.54-1.11,1.25-1.46,2.14-.35.89-.62,1.85-.8,2.89-.18,1.04-.45,2.01-.8,2.89-.35.89-.87,1.6-1.57,2.13-.69.54-1.73.75-3.1.66-1.67-.11-2.97-.24-3.9-.38-.94-.14-1.61-.44-2.01-.9-.4-.46-.63-1.13-.68-2.01-.05-.88-.02-2.11.09-3.7.21-3.11.39-5.63.52-7.55.13-1.92.54-3.38,1.23-4.39.69-1.01,1.79-1.64,3.3-1.9,1.51-.26,3.79-.28,6.83-.07,3.4.23,6.12.68,8.15,1.33,2.03.65,3.59,1.41,4.7,2.29,1.1.88,1.91,1.77,2.43,2.68.52.91,1.01,1.78,1.46,2.61.45.83,1,1.53,1.66,2.08.65.55,1.7.88,3.15.98,1.09.07,2.01-.1,2.76-.52.76-.42,1.38-1,1.87-1.73.49-.73.85-1.56,1.1-2.49.24-.93.4-1.83.46-2.7.08-1.16.02-2.64-.18-4.43-.21-1.8-.61-3.54-1.23-5.22-.61-1.68-1.44-3.14-2.48-4.37-1.04-1.24-2.32-1.91-3.85-2.01-.44-.03-.97.04-1.6.22-.63.17-1.59.37-2.88.57-1.29.2-3.04.34-5.27.4-2.23.06-5.15-.03-8.77-.28l-31.29-2.16c-1.09-.08-2.41-.18-3.96-.33-1.56-.14-3.05-.14-4.48.02-1.43.16-2.68.6-3.75,1.32-1.07.73-1.66,1.92-1.78,3.59-.09,1.3.05,2.22.41,2.76.36.53.86.95,1.5,1.25.64.3,1.31.58,2.02.85.71.27,1.38.79,2.02,1.56.64.77,1.14,1.93,1.51,3.49.37,1.55.52,3.71.48,6.47-.08,3.27-.13,6.01-.13,8.23,0,2.22-.05,4.18-.13,5.89-.08,1.7-.17,3.26-.27,4.68-.1,1.41-.26,2.95-.48,4.61-.22,1.66-.48,3.59-.78,5.79-.3,2.2-.67,4.96-1.12,8.27-.28,1.95-.67,3.45-1.18,4.5-.51,1.06-1.1,1.87-1.75,2.44-.66.57-1.32.98-2,1.23-.67.25-1.31.49-1.91.74-.6.25-1.1.6-1.49,1.04-.4.45-.63,1.18-.7,2.19-.02.36-.02.82.02,1.37.03.55.27,1.07.71,1.58.44.51,1.13.97,2.08,1.4.95.43,2.34.71,4.15.83l44.65,3.08c1.88.13,3.56.3,5.04.51,1.48.21,2.83.43,4.05.66,1.15.22,2.13.44,2.96.64.82.2,1.42.32,1.78.34,1.09.08,2.28-.57,3.57-1.94,1.29-1.37,2.52-3.08,3.68-5.15,1.16-2.07,2.15-4.25,2.96-6.56.81-2.31,1.29-4.4,1.42-6.29.11-1.52-.22-3.09-.98-4.71-.76-1.62-2.01-2.48-3.75-2.6Z"/>
      <path class="cls-1" d="M471.57,746.82c-2.11-4.31-5.01-7.97-8.7-10.98-3.69-3.01-8.25-5.13-13.7-6.36-5.44-1.23-11.89-1.2-19.33.08l-34.98,6.05c-.93.16-1.96.41-3.07.75-1.12.34-2.17.8-3.13,1.37-.97.57-1.73,1.29-2.28,2.16-.55.87-.72,1.91-.51,3.13.2,1.15.54,1.97,1.04,2.47.49.51,1.07.87,1.73,1.08.66.22,1.36.39,2.08.52.72.14,1.42.44,2.09.91.67.47,1.29,1.18,1.86,2.11.57.93.97,2.34,1.23,4.21l5.58,37.39c.39,2.66.48,4.71.29,6.14s-.57,2.55-1.14,3.35c-.56.8-1.2,1.37-1.91,1.71-.71.34-1.36.68-1.93,1-.57.32-1.03.77-1.37,1.34-.34.58-.4,1.51-.18,2.79.19,1.07.6,1.96,1.24,2.66.63.7,1.4,1.21,2.31,1.53.9.32,1.86.52,2.87.61,1.01.08,1.98.04,2.91-.12,3.07-.53,6.1-1.17,9.07-1.9,1.49-.33,3-.65,4.53-.95,1.53-.3,3.05-.58,4.55-.84,1.5-.26,3.01-.5,4.52-.73,1.51-.22,3.09-.44,4.75-.66,3.33-.36,7.28-.93,11.86-1.72,6.8-1.17,12.46-3.26,16.99-6.26,4.53-2.99,8.06-6.57,10.58-10.73,2.52-4.16,4.13-8.69,4.83-13.6.7-4.91.61-9.87-.25-14.88-.83-4.79-2.3-9.35-4.41-13.66ZM447.99,785.22c-.73,2.63-1.99,4.9-3.8,6.79-1.81,1.9-4.39,3.14-7.76,3.72-1.43.25-2.62.31-3.56.17-.95-.13-1.7-.48-2.28-1.04-.58-.56-1.02-1.31-1.33-2.26-.31-.94-.58-2.09-.82-3.45l-6.93-40.03c-.17-1-.29-1.88-.35-2.65-.06-.76.03-1.4.27-1.93.24-.52.66-.96,1.26-1.32.6-.36,1.47-.64,2.62-.84,2.07-.36,4.23-.38,6.45-.07,2.23.31,4.36,1.36,6.4,3.15,2.04,1.78,3.93,4.48,5.66,8.09,1.73,3.61,3.14,8.56,4.23,14.85.47,2.72.76,5.54.86,8.47.1,2.93-.21,5.71-.93,8.34Z"/>
      <path class="cls-1" d="M578.71,746.31c-.78-.12-1.65-.09-2.61.08-.96.17-2.09.2-3.39.08-1.3-.12-2.78-.94-4.47-2.48-1.21-1.04-2.95-2.5-5.24-4.4-2.29-1.9-4.8-3.97-7.53-6.22-2.73-2.25-5.57-4.55-8.51-6.9-2.94-2.35-5.66-4.53-8.16-6.53-2.5-2-4.65-3.69-6.47-5.09-1.81-1.39-2.96-2.26-3.44-2.6-1.75-1.18-3.63-2.4-5.61-3.63-1.98-1.24-4.06-2.26-6.25-3.09-2.19-.82-4.38-1.32-6.59-1.49s-4.39.25-6.56,1.26c-2.17,1.01-3.89,2.18-5.16,3.49-1.27,1.31-2.11,2.73-2.52,4.25-.41,1.52-.5,3.1-.25,4.74.25,1.65.77,3.33,1.57,5.04.92,1.97,1.62,4.07,2.1,6.29.48,2.22.84,4.5,1.09,6.83.25,2.33.41,4.64.47,6.93.07,2.29.11,4.48.12,6.56l.1,16.42c.01,1.92.01,4.14,0,6.67-.02,2.53-.28,4.72-.78,6.56-.29,1.26-.83,2.29-1.61,3.1-.79.81-1.51,1.59-2.16,2.33-.66.75-1.16,1.5-1.52,2.27-.36.77-.27,1.75.29,2.93.37.79.87,1.46,1.48,2.01.62.55,1.57.87,2.85.95,1.28.08,3.01-.2,5.19-.86,2.18-.66,5.04-1.82,8.59-3.48.99-.46,2.29-1.11,3.9-1.94,1.61-.83,3.12-1.82,4.51-2.95,1.4-1.13,2.48-2.36,3.27-3.69.78-1.33.82-2.75.11-4.26-.58-1.25-1.32-1.97-2.21-2.15s-1.78-.21-2.68-.07c-.9.14-1.75.22-2.54.23-.8.01-1.42-.48-1.89-1.46-.56-1.18-.81-2.21-.77-3.07.04-.86.34-1.62.91-2.29.57-.66,1.33-1.26,2.29-1.79.95-.53,2.09-1.1,3.41-1.71,3.95-1.84,7.16-3.29,9.64-4.33,2.48-1.04,4.44-1.69,5.87-1.96,1.44-.27,2.51-.19,3.23.23.72.43,1.34,1.2,1.86,2.32.4.86.36,1.59-.11,2.21-.47.62-1.02,1.26-1.63,1.91-.62.65-1.12,1.37-1.52,2.15-.4.79-.32,1.77.24,2.95.71,1.51,1.77,2.46,3.19,2.84,1.42.38,3.19.31,5.32-.2,2.12-.51,4.6-1.39,7.43-2.63,2.83-1.24,6.01-2.69,9.57-4.35,1.25-.58,2.92-1.38,5.01-2.4,2.09-1.02,4.07-2.22,5.94-3.62,1.87-1.39,3.34-2.92,4.41-4.58,1.07-1.66,1.19-3.38.36-5.16-.65-1.38-1.36-2.13-2.13-2.25ZM528.59,744.79c-.25.32-.58.61-.97.88-.4.27-.81.5-1.24.7-.43.2-.77.36-1.03.48l-7.4,3.46c-.26.12-.59.28-.99.46s-.8.34-1.23.45c-.43.12-.82.14-1.17.07-.36-.07-.63-.31-.81-.7-.12-.26-.24-.73-.35-1.4-.11-.67-.18-1.38-.21-2.12-.03-.75-.07-1.45-.14-2.1-.06-.65-.09-1.14-.08-1.46-.06-.29-.13-.88-.22-1.76-.09-.88-.13-1.82-.12-2.83s.12-1.94.32-2.79c.2-.85.6-1.42,1.19-1.7.52-.24,1.13-.29,1.81-.12s1.34.44,2,.81c.66.38,1.28.78,1.89,1.22.61.44,1.1.81,1.48,1.11.35.24.9.64,1.65,1.21.75.57,1.53,1.17,2.34,1.79.81.62,1.53,1.23,2.17,1.81.64.59,1.04,1.08,1.23,1.47.19.39.15.75-.1,1.07Z"/>
      <path class="cls-1" d="M654.12,687.67c-1.11-1.92-2.38-3.72-3.81-5.41-1.43-1.69-2.55-3-3.35-3.94l-18.28-21.48c-.66-.77-1.41-1.66-2.26-2.65-.85-.99-1.66-2.04-2.45-3.13-.79-1.09-1.53-2.18-2.21-3.27-.69-1.08-1.22-2.13-1.6-3.14-.47-1.22-.53-2.31-.2-3.26.34-.95.68-1.86,1.03-2.74.35-.87.55-1.76.6-2.65.05-.9-.42-1.93-1.41-3.09-1.22-1.44-2.62-2.1-4.2-2-1.58.11-3.19.59-4.83,1.46-1.64.87-3.19,1.91-4.65,3.1-1.46,1.2-2.63,2.17-3.52,2.92-.89.75-1.99,1.72-3.32,2.9-1.33,1.18-2.51,2.46-3.52,3.85-1.02,1.39-1.68,2.81-2.01,4.28-.32,1.47.08,2.86,1.21,4.19.94,1.11,1.87,1.72,2.79,1.85.92.13,1.82.1,2.71-.09.89-.19,1.82-.35,2.78-.51.97-.15,1.96.1,2.99.74.59.36,1.21.81,1.86,1.35.65.54,1.29,1.15,1.9,1.82.62.67,1.23,1.34,1.85,2,.62.67,1.14,1.25,1.56,1.75.28.33.65.79,1.09,1.36.44.58.82,1.19,1.13,1.83.31.64.46,1.28.47,1.89,0,.62-.25,1.14-.74,1.56-.39.33-.93.57-1.6.72-.68.15-1.42.26-2.23.32-.8.07-1.58.11-2.33.12-.75.02-1.33,0-1.74-.02l-34.34-.53c-1.65-.03-3,0-4.06.1-1.06.09-2.03.3-2.91.61-.88.32-1.76.79-2.66,1.41-.9.62-1.98,1.48-3.26,2.56-.94.8-2.23,1.92-3.87,3.36-1.63,1.44-3.13,3.02-4.47,4.74-1.35,1.72-2.32,3.47-2.9,5.25-.58,1.78-.24,3.42,1.03,4.91.71.83,1.4,1.34,2.08,1.52.68.18,1.38.21,2.08.09.71-.12,1.44-.29,2.2-.52.76-.22,1.62-.33,2.58-.33.95,0,1.99.21,3.12.64,1.12.43,2.38,1.24,3.78,2.43,2.98,2.61,5.8,5.39,8.45,8.33,2.65,2.94,5.24,5.91,7.78,8.89.8.94,1.64,1.96,2.53,3.06.89,1.1,1.78,2.23,2.66,3.38.89,1.16,1.75,2.31,2.58,3.45.83,1.15,1.54,2.24,2.13,3.26.91,1.52,1.3,2.82,1.19,3.92-.12,1.1-.34,2.12-.67,3.07-.34.95-.55,1.88-.65,2.77-.1.89.32,1.89,1.26,3,1.13,1.33,2.5,1.99,4.13,1.99,1.62,0,3.25-.36,4.88-1.07,1.63-.72,3.19-1.62,4.7-2.71,1.5-1.09,2.72-2.03,3.67-2.83.99-.85,2.15-1.93,3.47-3.24,1.31-1.31,2.45-2.73,3.39-4.25.95-1.52,1.55-3.08,1.81-4.68.26-1.6-.2-3.09-1.38-4.48-.85-1-1.68-1.5-2.5-1.52-.82-.01-1.69.08-2.61.29-.92.21-1.92.3-2.99.26-1.08-.03-2.35-.58-3.81-1.62-1.22-.87-2.44-1.97-3.67-3.31-1.23-1.33-2.34-2.58-3.33-3.74-.38-.44-.89-1.08-1.55-1.9-.65-.82-1.23-1.69-1.72-2.61-.49-.91-.81-1.82-.94-2.7-.14-.89.13-1.61.79-2.18.88-.75,2.12-1.16,3.69-1.21,1.57-.05,2.9-.06,3.98-.03l45.18,1.17c1.08.04,2.15-.05,3.23-.24,1.07-.2,2.02-.65,2.85-1.35,1.38-1.17,1.9-2.67,1.56-4.47-.35-1.8-1.07-3.67-2.18-5.58Z"/>
      <path class="cls-1" d="M710.12,608.23c-.71-1.7-1.58-3.27-2.6-4.71-1.03-1.44-2.04-2.51-3.05-3.23-.53-.38-1.16-.71-1.89-1.01-.73-.29-1.47-.46-2.24-.51-.76-.05-1.47.04-2.14.29-.66.25-1.22.69-1.68,1.34-.5.71-.66,1.62-.47,2.74.19,1.11.27,2.48.23,4.1-.04,1.62-.34,3.52-.9,5.7-.56,2.18-1.85,4.69-3.87,7.54-2.22,3.14-4.83,5.45-7.84,6.93-3,1.48-6.2,2.26-9.6,2.34-3.4.09-6.87-.48-10.41-1.7-3.54-1.22-6.97-3-10.29-5.35-1.24-.88-2.39-1.96-3.44-3.24-1.05-1.28-1.86-2.72-2.42-4.31-.56-1.6-.77-3.25-.62-4.97.15-1.72.83-3.43,2.05-5.15,1.84-2.61,3.77-4.51,5.78-5.71,2.01-1.2,4.02-1.96,6.02-2.28,2-.32,3.95-.4,5.85-.26,1.9.15,3.73.24,5.48.28,1.75.04,3.36-.16,4.82-.59,1.46-.43,2.74-1.42,3.83-2.96,1.89-2.67,2.42-5.36,1.59-8.09-.83-2.72-2.52-4.98-5.07-6.79-2.49-1.76-4.87-3.05-7.14-3.86-2.27-.81-4.37-1.27-6.29-1.39-1.92-.11-3.58.09-4.97.61-1.4.53-2.43,1.26-3.1,2.21-.54.77-.87,1.45-.98,2.04-.1.59-.52,1.39-1.23,2.4-.42.59-1.2,1.22-2.33,1.89-1.14.66-2.48,1.49-4.03,2.48-1.55.99-3.18,2.22-4.88,3.68-1.7,1.46-3.33,3.29-4.89,5.48-3.1,4.38-5.31,9.23-6.62,14.53-1.31,5.3-1.66,10.61-1.07,15.93.59,5.32,2.16,10.33,4.68,15.06,2.53,4.72,6.07,8.7,10.63,11.93,4.44,3.15,9.28,5.24,14.51,6.27,5.23,1.03,10.42,1.06,15.56.07,5.14-.98,10.03-2.92,14.67-5.83,4.63-2.9,8.61-6.69,11.92-11.37,1.84-2.61,3.25-5.15,4.2-7.63.96-2.48,1.68-4.77,2.19-6.86.5-2.09.9-3.9,1.18-5.44.28-1.53.7-2.69,1.24-3.46.8-1.12,1.1-2.51.93-4.14-.17-1.64-.62-3.31-1.32-5.01Z"/>
      <path class="cls-1" d="M753.8,532.2c-.89-1.66-2.14-3.36-3.74-5.11-1.6-1.75-3.37-3.37-5.31-4.87-1.94-1.49-3.78-2.6-5.53-3.31-1.41-.58-3-.75-4.78-.54-1.77.22-2.99,1.13-3.65,2.75-.58,1.41-.66,2.61-.24,3.61.42.99,1.03,1.99,1.84,2.98.81,1,1.71,2.07,2.69,3.21.98,1.15,1.74,2.55,2.28,4.22.54,1.67.73,3.71.57,6.11-.16,2.41-.93,5.32-2.33,8.75-1.07,2.62-1.95,4.69-2.64,6.21-.7,1.52-1.63,2.51-2.8,2.98-1.17.47-2.75.41-4.75-.17s-4.85-1.62-8.55-3.13c-.81-.33-1.62-.68-2.45-1.06-.83-.38-1.53-.82-2.1-1.33-.58-.51-.97-1.14-1.17-1.89-.21-.75-.09-1.66.35-2.74.69-1.68,1.47-2.85,2.37-3.51.89-.65,1.81-1.03,2.75-1.11.94-.09,1.89-.01,2.85.22.96.24,1.87.41,2.73.52.86.11,1.64.06,2.36-.16.72-.22,1.28-.83,1.69-1.84.6-1.48.43-2.94-.51-4.38-.94-1.44-2.19-2.75-3.75-3.94-1.56-1.18-3.23-2.22-5.03-3.1-1.79-.89-3.2-1.54-4.2-1.95-1.01-.41-2.39-.91-4.15-1.51-1.75-.6-3.54-1.03-5.35-1.3-1.81-.27-3.51-.23-5.1.1-1.59.34-2.68,1.24-3.28,2.72-.49,1.21-.58,2.19-.26,2.95.32.76.84,1.44,1.57,2.05.73.61,1.56,1.17,2.5,1.66.93.5,1.77,1.05,2.5,1.66.73.61,1.24,1.33,1.53,2.15.29.82.18,1.88-.34,3.15-.63,1.55-1.16,2.74-1.58,3.59-.42.85-.92,1.39-1.49,1.63-.57.24-1.28.24-2.12.02-.85-.23-2.01-.64-3.49-1.25-2.89-1.18-5.23-2.13-7.01-2.85-1.78-.73-3.04-1.57-3.79-2.54-.74-.97-1-2.21-.78-3.73.22-1.51.91-3.69,2.06-6.51,1.29-3.16,2.56-5.6,3.81-7.33,1.25-1.73,2.47-2.97,3.64-3.75,1.18-.77,2.28-1.27,3.3-1.48,1.03-.21,2-.4,2.94-.57.93-.17,1.76-.48,2.49-.93.73-.45,1.37-1.34,1.92-2.69.41-1.01.53-1.94.37-2.79-.16-.85-.52-1.62-1.06-2.31-.54-.69-1.22-1.3-2.02-1.82-.81-.52-1.61-.95-2.42-1.28-1.08-.44-2.5-.84-4.27-1.21-1.77-.37-3.55-.52-5.34-.47-1.79.06-3.43.39-4.93.99-1.5.61-2.54,1.61-3.11,3.03-.16.4-.26.93-.29,1.59-.03.65-.15,1.62-.36,2.91-.21,1.29-.63,3-1.27,5.13-.63,2.13-1.63,4.88-3,8.24l-11.83,29.05c-.41,1.01-.93,2.23-1.55,3.66-.62,1.43-1.08,2.85-1.38,4.26-.3,1.41-.27,2.73.09,3.97.36,1.24,1.31,2.18,2.85,2.81,1.21.49,2.13.65,2.75.47.62-.18,1.17-.52,1.65-1.03.48-.51.96-1.06,1.44-1.65.48-.59,1.18-1.07,2.11-1.43.93-.36,2.19-.48,3.78-.34,1.59.14,3.69.66,6.3,1.57,3.08,1.1,5.68,2,7.78,2.7,2.11.7,3.96,1.36,5.55,1.97,1.6.61,3.05,1.18,4.36,1.72,1.31.53,2.72,1.17,4.23,1.9,1.51.73,3.26,1.58,5.25,2.55,2,.97,4.5,2.19,7.51,3.65,1.76.88,3.06,1.72,3.91,2.53.84.81,1.44,1.62,1.77,2.43.34.8.52,1.56.54,2.28.02.72.06,1.4.11,2.04.05.65.23,1.23.53,1.74.3.52.92.96,1.86,1.35.34.14.77.27,1.3.41.53.14,1.1.08,1.72-.18.61-.26,1.27-.77,1.98-1.54.71-.77,1.4-2,2.09-3.68l16.88-41.46c.71-1.75,1.4-3.29,2.06-4.63.66-1.34,1.29-2.55,1.9-3.64.57-1.02,1.08-1.89,1.53-2.61.45-.72.74-1.24.88-1.58.41-1.01.17-2.34-.73-4Z"/>
    </g>
  </g>
</svg>