<svg width="121" height="131" viewBox="0 0 121 131" fill="none" xmlns="http://www.w3.org/2000/svg">
<path d="M41.042 46.2701C40.1504 46.1064 39.2683 46.0245 38.3958 46.0245C35.7415 46.0245 33.4139 46.4258 31.4128 47.2282C29.4117 48.0307 27.7387 49.0418 26.394 50.2632C25.0477 51.4846 24.0391 52.852 23.3668 54.3655C22.6928 55.8789 22.3582 57.3458 22.3582 58.7678C22.3582 60.7371 22.8401 62.5411 23.8038 64.1813C24.7675 65.8216 26.013 67.2436 27.5402 68.4473C28.5584 69.2497 29.5942 69.9158 30.6491 70.4438C31.7041 70.9719 32.7303 71.4196 33.7308 71.784C34.7298 72.1483 35.6759 72.458 36.5676 72.7132C37.4577 72.9684 38.2405 73.2509 38.9129 73.5606C39.5852 73.8704 40.1135 74.2363 40.4945 74.6536C40.8756 75.0741 41.0677 75.6102 41.0677 76.2666C41.0677 76.777 40.9044 77.2055 40.5762 77.5521C40.2496 77.8988 39.8574 78.1733 39.4027 78.3723C38.9481 78.5729 38.4838 78.7189 38.0116 78.8104C37.5393 78.9019 37.1567 78.9468 36.8654 78.9468C35.1924 78.9468 33.7917 78.7286 32.6646 78.2904C31.5376 77.8539 30.5915 77.3162 29.8279 76.6775C29.0643 76.0403 28.4271 75.3469 27.918 74.599C27.409 73.8527 26.9447 73.1594 26.5269 72.5206C26.1091 71.8835 25.6816 71.3442 25.2446 70.9077C24.8075 70.4711 24.2632 70.2512 23.6085 70.2512C22.7712 70.2512 22.1805 70.561 21.8363 71.1805C21.4905 71.8016 21.3176 72.4757 21.3176 73.2043C21.3176 73.933 21.3993 74.7451 21.5626 75.7466C21.7259 76.7497 21.9628 77.7431 22.2718 78.727C22.5807 79.7108 22.9809 80.624 23.4724 81.4618C23.9639 82.3012 24.5354 82.9014 25.1902 83.2658C25.9538 83.7039 26.8903 84.0859 27.9997 84.4149C29.1091 84.7423 30.2537 85.0168 31.4368 85.235C32.6182 85.4533 33.7917 85.6186 34.9555 85.7278C36.1193 85.8369 37.1551 85.8915 38.0644 85.8915C41.2277 85.8915 43.946 85.4806 46.2193 84.6605C48.4925 83.8403 50.3559 82.7827 51.8111 81.4891C53.2647 80.1955 54.3293 78.7366 55.0017 77.114C55.6741 75.4914 56.0102 73.8784 56.0102 72.2735C56.0102 70.1951 55.5924 68.4457 54.7552 67.0237C53.9179 65.6017 52.6452 64.3258 50.9371 63.1959C49.3362 62.1382 47.7273 61.363 46.1104 60.8719C44.4919 60.3792 43.0095 59.9426 41.6648 59.5591C40.3184 59.1771 39.2282 58.7309 38.3926 58.2189C37.5553 57.7086 37.1375 56.9061 37.1375 55.8131C37.1375 54.8293 37.5105 54.1279 38.2549 53.7074C38.9993 53.2885 39.7902 53.0783 40.6274 53.0783C42.0458 53.0783 43.2737 53.4057 44.3094 54.0621C45.3468 54.7185 46.2817 55.4295 47.119 56.1951C47.9546 56.9607 48.7647 57.6716 49.5459 58.3281C50.3271 58.9845 51.1724 59.3119 52.0817 59.3119C53.0999 59.3119 53.8907 58.9283 54.4542 58.1628C55.0177 57.3972 55.2995 56.5402 55.2995 55.5932C55.2995 54.4634 55.0721 53.3704 54.6175 52.3127C54.1628 51.2551 53.6169 50.3354 52.9814 49.5506C52.3442 48.7674 51.6895 48.1382 51.0171 47.6632C50.3431 47.1897 49.7716 46.9522 49.2994 46.9522C48.7167 46.9522 48.2268 47.0613 47.8266 47.2796C47.4263 47.4979 47.0261 47.607 46.6259 47.607C46.4082 47.607 46.0256 47.5252 45.4797 47.3615C44.9338 47.1977 44.279 47.0148 43.5154 46.8142C42.7518 46.6135 41.9241 46.4306 41.034 46.2669L41.042 46.2701Z" fill="white"/>
<path d="M89.808 84.2496C91.681 83.484 93.189 82.5179 94.3353 81.3511C95.4799 80.1843 96.2995 78.881 96.7894 77.4414C97.2809 76.0018 97.5258 74.5894 97.5258 73.2027C97.5258 72.0729 97.3161 71.0344 96.8983 70.0859C96.4804 69.1374 95.9522 68.3173 95.3166 67.6255C94.6795 66.9338 94.0071 66.3496 93.2979 65.8761C92.5887 65.4027 91.9612 65.056 91.4153 64.8377C91.1239 64.6917 90.8598 64.5456 90.6244 64.3996C90.3875 64.2551 90.2706 63.9984 90.2706 63.634C90.2706 63.2697 90.3699 62.9872 90.5716 62.7866C90.7701 62.586 90.999 62.3758 91.2536 62.1575C92.2349 61.3566 92.9809 60.3439 93.49 59.1225C93.9991 57.9012 94.2536 56.6525 94.2536 55.3766C94.2536 54.3189 94.0711 53.2629 93.7077 52.2052C93.3443 51.1475 92.6896 50.191 91.7434 49.3339C90.7973 48.4785 89.515 47.7755 87.8981 47.2282C86.2796 46.681 84.2161 46.4081 81.7075 46.4081C81.088 46.4081 80.4525 46.4274 79.7977 46.4627C79.1429 46.4996 78.5058 46.5365 77.8878 46.5718C77.2699 46.6457 76.6424 46.7002 76.0068 46.7355C75.3697 46.7724 74.7245 46.7901 74.0698 46.7901C73.0516 46.7901 72.0414 46.7724 71.0425 46.7355C70.042 46.7002 69.0334 46.6457 68.0152 46.5718C66.9971 46.5365 65.9869 46.4996 64.988 46.4627C63.9874 46.4274 62.9789 46.4081 61.9607 46.4081C61.5253 46.4081 61.0786 46.4723 60.624 46.5991C60.1693 46.7275 59.7515 46.9185 59.3689 47.1737C58.9879 47.4289 58.6693 47.7482 58.4148 48.1302C58.1602 48.5122 58.0322 48.96 58.0322 49.4704C58.0322 50.0915 58.149 50.536 58.386 50.8105C58.6213 51.0833 58.9046 51.2936 59.2312 51.4396C59.5578 51.5857 59.9212 51.7398 60.3214 51.9051C60.7216 52.0688 61.085 52.3512 61.4116 52.7525C61.7382 53.1537 62.0023 53.7363 62.2025 54.5019C62.4026 55.2674 62.465 56.3427 62.393 57.7278L61.7926 73.4772C61.719 75.0083 61.5829 76.212 61.3828 77.0867C61.1827 77.9614 60.9378 78.6371 60.6464 79.1105C60.355 79.584 60.0461 79.9227 59.7195 80.1217C59.3929 80.3223 59.0999 80.5052 58.847 80.669C58.5925 80.8327 58.3732 81.0333 58.1923 81.2708C58.0098 81.5083 57.9201 81.9176 57.9201 82.5018C57.9201 83.4503 58.3107 84.1693 59.0919 84.6621C59.8732 85.1548 60.6832 85.4003 61.5189 85.4003C63.4095 85.4003 65.2825 85.3458 67.138 85.2366C68.0825 85.1997 69.0206 85.1724 69.9475 85.1548C70.8744 85.1355 71.8109 85.1275 72.757 85.1275C73.5927 85.1275 74.4203 85.1355 75.2384 85.1548C76.0564 85.1724 76.8841 85.1997 77.7198 85.2366C79.3559 85.3458 81.0832 85.4003 82.9018 85.4003C85.6297 85.4003 87.9286 85.0168 89.8016 84.2512L89.808 84.2496ZM75.3793 55.3204V54.144C75.3793 53.762 75.4241 53.4153 75.5154 53.1056C75.6066 52.7958 75.7779 52.5503 76.034 52.3673C76.2886 52.1859 76.6696 52.0944 77.1803 52.0944C77.9439 52.0944 78.5714 52.2678 79.0629 52.6145C79.5544 52.9611 79.945 53.3993 80.2363 53.9273C80.5261 54.4569 80.7278 55.0476 80.8367 55.704C80.9455 56.3604 81 56.9992 81 57.6187C81 58.3842 80.9455 59.0872 80.8367 59.7244C80.7278 60.3631 80.5181 60.9185 80.2091 61.3919C79.9002 61.867 79.4807 62.2393 78.954 62.5122C78.4257 62.785 77.763 62.923 76.9625 62.923C76.1621 62.923 75.653 62.6598 75.5442 62.1302C75.4353 61.6022 75.3809 60.8093 75.3809 59.7517V55.322L75.3793 55.3204ZM81.3794 78.1797C80.7598 79.1282 79.6696 79.6017 78.1072 79.6017C77.6717 79.6017 77.2891 79.5567 76.9609 79.4652C76.6344 79.3754 76.3526 79.1282 76.1157 78.727C75.8788 78.3273 75.6979 77.6886 75.5698 76.8139C75.4417 75.9392 75.3793 74.7001 75.3793 73.0952V70.3604C75.4145 69.7778 75.5698 69.2947 75.8435 68.9111C76.1157 68.5291 76.6696 68.3365 77.5068 68.3365C78.4514 68.3365 79.2342 68.5099 79.8521 68.8565C80.4701 69.2032 80.9615 69.659 81.3249 70.224C81.6883 70.7905 81.9429 71.4549 82.0886 72.2205C82.2326 72.9861 82.3063 73.7885 82.3063 74.6263C82.3063 76.0483 81.9973 77.2328 81.3794 78.1813V78.1797Z" fill="white"/>
<path d="M2.19832 40.083C2.60495 40.6464 3.0644 41.0781 3.57828 41.3782C4.29067 41.7939 5.04468 41.9977 5.84192 41.9929C6.63916 41.9881 7.41558 41.834 8.1728 41.5323C8.67707 41.3317 9.13653 41.0941 9.55115 40.8213C9.96418 40.5501 10.3436 40.2692 10.6862 39.9819C11.0288 39.6946 11.3409 39.417 11.6211 39.1457C11.9012 38.8761 12.1686 38.6514 12.4215 38.4717C12.6761 38.2919 12.9194 38.1779 13.1515 38.1266C13.3837 38.0768 13.619 38.1202 13.8559 38.2582C14.0416 38.3657 14.1617 38.515 14.2177 38.7076C14.2737 38.9002 14.2898 39.0992 14.2673 39.3062C14.2433 39.5133 14.1985 39.7139 14.1329 39.9049C14.0656 40.0959 14.0016 40.2451 13.9408 40.351C13.5886 40.9593 13.214 41.4232 12.8185 41.7409C12.4231 42.0587 12.0293 42.2898 11.6371 42.4327C11.2465 42.5755 10.8607 42.6622 10.4829 42.6895C10.1051 42.7167 9.75607 42.7408 9.43749 42.7569C9.11892 42.7745 8.83396 42.8162 8.58422 42.8837C8.33449 42.9495 8.13918 43.1019 8.0015 43.3411C7.82541 43.646 7.8126 43.9253 7.96468 44.1821C8.11677 44.4389 8.32328 44.6427 8.58743 44.7968C8.83876 44.9428 9.16214 45.0921 9.55916 45.2429C9.95618 45.3954 10.366 45.519 10.787 45.6137C11.2081 45.7084 11.6227 45.7549 12.0293 45.7533C12.4359 45.7517 12.7753 45.6698 13.0443 45.5094C13.3628 45.3232 13.699 45.0632 14.0512 44.7293C14.4034 44.3955 14.7444 44.036 15.0726 43.6524C15.4008 43.2688 15.7065 42.8772 15.9915 42.476C16.2764 42.0764 16.515 41.7104 16.7055 41.3798C17.3714 40.2291 17.7973 39.1538 17.9798 38.1539C18.1623 37.154 18.1719 36.2536 18.0102 35.4511C17.8485 34.6503 17.5443 33.9553 17.0993 33.3679C16.6542 32.7821 16.1404 32.3199 15.5608 31.9812C14.8084 31.5431 14.088 31.3264 13.3965 31.3312C12.7049 31.3361 11.9765 31.5302 11.2065 31.9138C10.4861 32.2733 9.86653 32.6954 9.34784 33.1801C8.82916 33.6648 8.3585 34.1126 7.93587 34.5203C7.51324 34.9295 7.12262 35.2313 6.76082 35.4287C6.39903 35.6261 6.02122 35.6084 5.6258 35.3773C5.26881 35.1703 5.09431 34.8862 5.09911 34.5267C5.10392 34.1672 5.19517 33.835 5.37126 33.5316C5.67063 33.0164 6.04843 32.6393 6.50308 32.4001C6.95933 32.161 7.41398 31.9716 7.86703 31.8272C8.32008 31.6843 8.74751 31.5399 9.15093 31.3938C9.55276 31.2478 9.85052 31.0086 10.041 30.678C10.2555 30.3073 10.2844 29.9397 10.1259 29.5738C9.96738 29.2079 9.71765 28.9238 9.37346 28.7248C8.96523 28.4873 8.52019 28.3396 8.04313 28.2818C7.56447 28.2241 7.11622 28.2289 6.69839 28.2947C6.28056 28.3605 5.91556 28.4664 5.60179 28.6108C5.28802 28.7553 5.0815 28.9142 4.98225 29.0859C4.86058 29.2978 4.79495 29.5 4.79014 29.691C4.78534 29.882 4.74052 30.0505 4.65567 30.1965C4.60925 30.2768 4.49879 30.3972 4.32429 30.5609C4.14979 30.7246 3.94648 30.9236 3.71275 31.1595C3.47903 31.3954 3.23889 31.657 2.99236 31.9475C2.74582 32.2364 2.52971 32.5398 2.3456 32.8575C1.7853 33.8237 1.44111 34.7546 1.30984 35.6502C1.17857 36.5473 1.19297 37.3691 1.34986 38.1154C1.50835 38.8617 1.7901 39.5181 2.19672 40.0814L2.19832 40.083Z" fill="white"/>
<path d="M10.8415 24.9692C11.0624 25.4828 11.3393 25.9193 11.6691 26.2789C11.9477 26.5822 12.2967 26.7764 12.7129 26.8582C13.1307 26.9401 13.5021 26.8326 13.8287 26.5324C14.1665 26.2211 14.357 25.8535 14.4018 25.4282C14.4466 25.0029 14.4434 24.5856 14.389 24.178C14.3362 23.7703 14.293 23.3899 14.2593 23.0353C14.2257 22.6822 14.3042 22.4173 14.4947 22.2408C14.5507 22.1894 14.6211 22.1413 14.7028 22.0948C14.786 22.0498 14.9045 22.0546 15.0582 22.1092C15.2119 22.1654 15.4152 22.3002 15.6649 22.5169C15.9147 22.7335 16.2364 23.0657 16.627 23.5151L19.9152 27.3734C20.0081 27.4745 20.1266 27.6158 20.2706 27.7939C20.4147 27.9737 20.5556 28.1615 20.6917 28.3557C20.8293 28.5515 20.9558 28.7408 21.0727 28.9238C21.1895 29.1068 21.2664 29.2657 21.3048 29.3957C21.3592 29.6364 21.34 29.8579 21.244 30.0585C21.1495 30.2607 21.0487 30.4565 20.9446 30.6459C20.839 30.8369 20.7717 31.0279 20.7429 31.2221C20.7125 31.4163 20.8021 31.6249 21.0086 31.8496C21.2056 32.0631 21.4489 32.1722 21.7402 32.1722C22.0316 32.1738 22.3486 32.1064 22.688 31.9684C23.029 31.832 23.3731 31.649 23.7237 31.4195C24.0743 31.19 24.4073 30.9509 24.7259 30.6989C25.0445 30.4469 25.3294 30.2046 25.5824 29.9718C25.8353 29.7391 26.0338 29.5562 26.1811 29.4213C26.9671 28.6975 27.5514 28.0796 27.9356 27.5708C28.3183 27.0621 28.5712 26.6368 28.6945 26.2949C28.8177 25.953 28.8449 25.6786 28.7777 25.47C28.7105 25.2613 28.616 25.0896 28.4911 24.9548C28.3151 24.7638 28.1438 24.6562 27.9789 24.6322C27.8124 24.6097 27.6475 24.6209 27.4826 24.6675C27.3193 24.714 27.148 24.7782 26.9719 24.8569C26.7958 24.9355 26.6085 24.9804 26.4084 24.9869C26.2083 24.9949 25.9842 24.9419 25.7344 24.828C25.4863 24.714 25.2061 24.4893 24.8972 24.1507L20.1426 18.9635C20.1122 18.9298 20.0449 18.856 19.9409 18.7436C19.8384 18.6313 19.7456 18.4981 19.6655 18.3424C19.5855 18.1867 19.5406 18.0262 19.5326 17.8577C19.523 17.6892 19.6031 17.5271 19.7712 17.373C19.9841 17.1756 20.2514 17.1226 20.5716 17.2125C20.8918 17.3024 21.2376 17.4035 21.6122 17.5158C21.9852 17.6298 22.3694 17.6972 22.7616 17.7181C23.1554 17.7405 23.5364 17.58 23.9078 17.2382C24.3353 16.845 24.5418 16.4213 24.5274 15.9655C24.5146 15.5096 24.3113 15.0683 23.919 14.6414C23.506 14.1904 23.0482 13.8437 22.5455 13.6014C22.0428 13.359 21.5594 13.1921 21.0919 13.1022C20.626 13.0123 20.2082 12.9979 19.8384 13.0573C19.4686 13.1167 19.1997 13.2258 19.0316 13.3799C18.8747 13.5243 18.761 13.6495 18.6922 13.7554C18.6233 13.8614 18.5417 13.9882 18.4488 14.1342C18.3464 14.2706 18.2087 14.444 18.039 14.6526C17.8677 14.8629 17.6036 15.1325 17.2434 15.4631L13.0987 19.2829C12.7609 19.5942 12.4632 19.843 12.2006 20.0324C11.9397 20.2218 11.7188 20.3775 11.5411 20.4994C11.3522 20.6102 11.1985 20.7017 11.0768 20.7723C10.9551 20.8429 10.8655 20.9039 10.8095 20.9552C10.5741 21.1719 10.422 21.5041 10.3548 21.9503C10.2876 22.3965 10.2972 22.8812 10.382 23.4044C10.4685 23.9276 10.6222 24.446 10.8431 24.958L10.8415 24.9692Z" fill="white"/>
<path d="M25.5664 10.3417C25.6672 10.5808 25.8241 10.7429 26.0338 10.828C26.2435 10.9131 26.466 10.9885 26.7014 11.0543C26.9367 11.1201 27.1608 11.2196 27.3753 11.3544C27.5899 11.4876 27.7612 11.7268 27.8892 12.0702L29.9528 16.9493C29.9704 16.991 30.0424 17.19 30.1673 17.5431C30.2921 17.8978 30.5003 18.3023 30.7932 18.7597C31.0862 19.2171 31.48 19.6761 31.9731 20.1399C32.4661 20.6038 33.0889 20.9568 33.8397 21.2024C34.5905 21.448 35.4854 21.5378 36.526 21.4688C37.5665 21.4014 38.7736 21.074 40.1503 20.4882C41.359 19.9746 42.3259 19.4129 43.0559 18.8046C43.7843 18.1963 44.335 17.58 44.7096 16.9557C45.0843 16.3314 45.3148 15.7231 45.4028 15.1277C45.4909 14.5338 45.5069 13.9833 45.4493 13.4746C45.3916 12.9674 45.2972 12.5293 45.1675 12.1617C45.0362 11.7942 44.9386 11.5326 44.8729 11.3769L42.4604 5.67292C42.2587 5.19464 42.1963 4.82229 42.2747 4.55587C42.3532 4.29105 42.4716 4.06155 42.6301 3.86895C42.7886 3.67636 42.9263 3.49339 43.0447 3.31846C43.1616 3.14352 43.1568 2.90919 43.0319 2.61388C42.9007 2.30413 42.6749 2.12277 42.3532 2.0682C42.0314 2.01363 41.6872 2.02005 41.3158 2.08585C40.946 2.15166 40.5826 2.25277 40.2256 2.38758C39.8686 2.5224 39.5916 2.63154 39.3947 2.7166C39.1834 2.80648 38.8937 2.93327 38.5239 3.09858C38.1541 3.26389 37.8083 3.4613 37.4817 3.6908C37.1567 3.92031 36.8974 4.18031 36.7053 4.4692C36.5132 4.7597 36.4843 5.06624 36.622 5.38884C36.7533 5.69859 36.9342 5.8623 37.1663 5.87995C37.3984 5.89761 37.6482 5.91205 37.9171 5.92168C38.1861 5.93131 38.4646 6.01316 38.7528 6.16403C39.0409 6.3165 39.3035 6.6728 39.542 7.23614L41.7672 12.4956C41.7913 12.5517 41.8601 12.7459 41.977 13.0798C42.0938 13.4136 42.1322 13.7988 42.0938 14.2385C42.0554 14.6783 41.8809 15.1357 41.5671 15.6092C41.2534 16.0826 40.6818 16.4967 39.8542 16.8482C38.7304 17.3264 37.7602 17.2976 36.947 16.7631C36.1321 16.2287 35.4614 15.3347 34.9299 14.0812L33.2858 10.1941C33.1209 9.76553 33.0344 9.41566 33.028 9.14442C33.0216 8.87318 33.0537 8.65652 33.1257 8.49281C33.1977 8.32911 33.2938 8.1959 33.4171 8.09478C33.5387 7.99367 33.6444 7.88935 33.734 7.78503C33.8221 7.68071 33.8813 7.55713 33.9117 7.41107C33.9405 7.26663 33.9021 7.06601 33.7949 6.81243C33.7052 6.60058 33.5707 6.43045 33.3914 6.29885C33.2121 6.16724 32.9432 6.10304 32.5878 6.10465C32.2324 6.10625 31.7682 6.18329 31.1934 6.33576C30.6203 6.48823 29.9047 6.74663 29.0483 7.11095C27.9661 7.57157 27.1688 7.98565 26.6533 8.35318C26.1379 8.72232 25.7969 9.0417 25.6288 9.31133C25.4607 9.58257 25.4015 9.80245 25.4495 9.97418C25.4975 10.1459 25.5359 10.2663 25.5648 10.3369L25.5664 10.3417Z" fill="white"/>
<path d="M48.4589 2.50956C48.5918 2.57215 48.731 2.62672 48.8799 2.67327C49.0272 2.71981 49.1649 2.80166 49.2929 2.91722C49.421 3.03438 49.5315 3.19648 49.6259 3.40673C49.7204 3.61698 49.7684 3.92031 49.7732 4.31834L49.9717 12.2805C49.9829 12.847 49.9509 13.2772 49.8741 13.5709C49.7972 13.8662 49.6884 14.0893 49.5507 14.2417C49.413 14.3942 49.2657 14.4969 49.1072 14.5499C48.9488 14.6028 48.8063 14.6558 48.6798 14.7088C48.5517 14.7617 48.4461 14.8436 48.3596 14.9543C48.2732 15.0651 48.2364 15.2593 48.2492 15.5337C48.2604 15.7632 48.3228 15.959 48.4381 16.1227C48.5533 16.2864 48.7006 16.4132 48.8799 16.5031C49.0592 16.5946 49.2545 16.662 49.4626 16.7053C49.6708 16.7487 49.8741 16.7663 50.0726 16.7567C50.7273 16.7246 51.3741 16.6716 52.0128 16.5946C52.3314 16.5641 52.6548 16.5368 52.983 16.5127C53.3112 16.4887 53.6345 16.4694 53.9547 16.455C54.2749 16.4389 54.5951 16.4277 54.9152 16.4197C55.2354 16.4116 55.5716 16.4068 55.9222 16.4052C56.625 16.4164 57.4654 16.4004 58.4404 16.3522C59.8876 16.2832 61.1234 15.9927 62.1448 15.484C63.1662 14.9752 63.9938 14.3188 64.6278 13.5147C65.2617 12.7106 65.7147 11.8054 65.9869 10.7959C66.259 9.788 66.3695 8.748 66.3183 7.6791C66.2687 6.65514 66.0797 5.66489 65.7516 4.70834C65.4234 3.75179 64.9127 2.9108 64.2211 2.18697C63.5295 1.46153 62.6315 0.899797 61.5285 0.501769C60.4238 0.103742 59.0807 -0.0583576 57.4958 0.0186799L50.0438 0.378188C49.8452 0.387818 49.6243 0.413497 49.3826 0.455226C49.1393 0.496955 48.9103 0.565968 48.6942 0.660659C48.4765 0.755351 48.3004 0.886957 48.1627 1.05387C48.0251 1.22079 47.9642 1.43424 47.9754 1.69425C47.9866 1.9382 48.0379 2.11956 48.1275 2.23832C48.2172 2.35709 48.3276 2.44697 48.4621 2.50956H48.4589ZM55.2466 3.33129C55.2546 3.1708 55.2898 3.03919 55.3539 2.93648C55.4179 2.83376 55.5172 2.75351 55.6516 2.69252C55.7861 2.63314 55.975 2.59623 56.2199 2.58499C56.6618 2.56413 57.11 2.61549 57.5679 2.73746C58.0241 2.86104 58.442 3.13549 58.8214 3.5608C59.2008 3.98611 59.5242 4.5992 59.7915 5.39847C60.0588 6.19773 60.2253 7.26984 60.2894 8.61318C60.3166 9.19417 60.3038 9.79282 60.2494 10.4075C60.1949 11.0222 60.0572 11.5968 59.8395 12.1264C59.6202 12.6577 59.2984 13.099 58.871 13.4473C58.4452 13.7972 57.8736 13.9898 57.1565 14.0235C56.8523 14.0379 56.6026 14.0203 56.4088 13.9673C56.2151 13.9159 56.0663 13.8228 55.9606 13.6896C55.8549 13.5564 55.7813 13.3879 55.7413 13.1825C55.7013 12.977 55.674 12.7299 55.6596 12.4394L55.2498 3.89142C55.2386 3.67796 55.2386 3.49018 55.245 3.32808L55.2466 3.33129Z" fill="white"/>
<path d="M70.8952 17.0247C71.1834 17.2976 71.6236 17.5929 72.2175 17.9107C72.8114 18.2284 73.6439 18.5655 74.7165 18.9202C74.9774 19.0068 75.3632 19.1256 75.8755 19.2797C76.3878 19.4338 76.9065 19.5413 77.4316 19.6023C77.9567 19.6649 78.4401 19.6504 78.8788 19.5621C79.3174 19.4739 79.6024 19.2331 79.7304 18.8415C79.8169 18.5799 79.8201 18.3632 79.74 18.1915C79.66 18.0198 79.5511 17.8625 79.4135 17.7213C79.2758 17.5784 79.1397 17.442 79.0068 17.3088C78.874 17.1756 78.7971 17.0183 78.7779 16.8337C78.7427 16.5962 78.7827 16.2239 78.8948 15.7119C79.0068 15.2015 79.2294 14.4456 79.5591 13.4425C79.684 13.0653 79.8009 12.7331 79.9113 12.4474C80.0218 12.1617 80.1531 11.9081 80.3084 11.6851C80.462 11.462 80.6445 11.2501 80.8575 11.0463C81.0688 10.8425 81.3489 10.629 81.6963 10.4059L85.3383 8.35158C85.7097 8.15256 86.0667 8.05787 86.4093 8.0659C86.7519 8.07553 87.0625 8.09318 87.3426 8.12207C87.6228 8.15096 87.8693 8.13491 88.0806 8.07713C88.2935 8.01935 88.4568 7.81552 88.5721 7.46725C88.6489 7.23453 88.6633 7.01787 88.6185 6.81725C88.5721 6.61663 88.4344 6.42243 88.2087 6.23465C87.9814 6.04687 87.6532 5.85749 87.2257 5.6681C86.7983 5.47711 86.2444 5.27008 85.564 5.04378C85.3607 4.97637 85.0694 4.8881 84.6884 4.77736C84.3073 4.66662 83.9183 4.59118 83.5229 4.54785C83.1275 4.50612 82.7657 4.52698 82.4407 4.61205C82.1142 4.69711 81.8996 4.89933 81.794 5.21872C81.7267 5.42255 81.7059 5.59588 81.7299 5.74193C81.7539 5.88638 81.7908 6.01959 81.8388 6.13996C81.8868 6.26033 81.9268 6.38231 81.9589 6.50589C81.9909 6.62947 81.9829 6.76428 81.9348 6.90873C81.8916 7.04033 81.7876 7.18317 81.6243 7.33725C81.461 7.49293 81.2737 7.63256 81.064 7.75614C80.8543 7.87972 80.6445 7.97602 80.438 8.04343C80.2299 8.11244 80.0538 8.12207 79.9097 8.07392C79.7801 8.03059 79.6536 7.90861 79.5367 7.70799C79.4183 7.50737 79.319 7.28108 79.2422 7.0307C79.1637 6.77873 79.1125 6.53317 79.0885 6.29082C79.0629 6.04848 79.0709 5.87033 79.1093 5.75317C79.1477 5.63761 79.2134 5.54613 79.3078 5.48032C79.4023 5.41452 79.4999 5.34711 79.604 5.2765C79.708 5.20588 79.8089 5.13045 79.9081 5.0502C80.0058 4.96995 80.0794 4.8576 80.1275 4.71155C80.1659 4.596 80.1883 4.45316 80.1947 4.28624C80.2011 4.11933 80.089 3.92192 79.8601 3.69241C79.6296 3.4629 79.2262 3.2013 78.6498 2.90438C78.0719 2.60907 77.2187 2.27364 76.0884 1.89808C74.8286 1.48079 73.8424 1.21437 73.1332 1.10042C72.424 0.986467 71.8941 0.955973 71.5484 1.01054C71.201 1.06511 70.9816 1.16943 70.8904 1.32351C70.7991 1.47919 70.7319 1.62203 70.6887 1.75203C70.6022 2.01363 70.6182 2.23191 70.7367 2.40845C70.8552 2.585 71.0169 2.76315 71.2234 2.9445C71.4299 3.12586 71.6556 3.33772 71.9053 3.58167C72.1551 3.82562 72.3584 4.1434 72.5185 4.53501L74.0329 8.20232C74.1386 8.51207 74.2234 8.7817 74.2843 9.01121C74.3451 9.24072 74.3803 9.4622 74.3915 9.67566C74.4011 9.88912 74.3835 10.1122 74.3387 10.3465C74.2923 10.5809 74.2202 10.8505 74.1194 11.1554C73.7688 12.2163 73.4742 13.0123 73.2341 13.5452C72.9939 14.078 72.7746 14.4488 72.5777 14.6574C72.4048 14.842 72.2127 14.9479 72.003 14.9736C71.7933 15.0009 71.5836 15.025 71.3771 15.0442C71.1689 15.0635 70.98 15.1148 70.8087 15.1951C70.6375 15.2753 70.5046 15.4615 70.4085 15.752C70.3605 15.8964 70.3573 16.0778 70.3989 16.2929C70.4405 16.5079 70.6038 16.7519 70.892 17.0247H70.8952Z" fill="white"/>
<path d="M86.7551 16.9429C86.4221 17.0103 86.1051 17.1419 85.8074 17.3409C85.5096 17.5399 85.2519 17.7855 85.0358 18.0808C84.5459 18.7452 84.3138 19.4337 84.3394 20.1463C84.3634 20.8589 84.5395 21.5491 84.8629 22.2167C85.1862 22.8844 85.6153 23.5055 86.15 24.0817C86.6831 24.6579 87.221 25.1458 87.7604 25.5454C87.9317 25.6722 88.1895 25.8391 88.5305 26.0445C88.8731 26.25 89.2701 26.4442 89.7231 26.6271C90.1762 26.8101 90.6692 26.9513 91.2023 27.0524C91.7354 27.1519 92.2797 27.1664 92.8368 27.0926C93.3923 27.0187 93.951 26.8293 94.5097 26.5196C95.0684 26.2114 95.5999 25.7396 96.1058 25.1056L100.439 19.53C100.732 19.1577 101.022 18.9394 101.307 18.8736C101.592 18.8094 101.863 18.795 102.119 18.8335C102.375 18.872 102.613 18.8961 102.833 18.9057C103.052 18.917 103.254 18.7982 103.435 18.5526C103.526 18.429 103.59 18.2589 103.628 18.039C103.667 17.8208 103.606 17.5415 103.446 17.2045C103.286 16.8674 102.983 16.463 102.535 15.9879C102.087 15.5145 101.427 14.9543 100.556 14.3091C99.6598 13.6463 98.9122 13.1921 98.315 12.9498C97.7163 12.7058 97.236 12.579 96.8742 12.5678C96.5124 12.5565 96.2403 12.6175 96.0578 12.7491C95.8753 12.8807 95.7536 12.9899 95.6896 13.0749C95.5359 13.2836 95.4671 13.4665 95.4863 13.6222C95.5039 13.7779 95.5583 13.9288 95.6512 14.0732C95.744 14.2177 95.8497 14.3637 95.9697 14.5098C96.0898 14.6558 96.1779 14.8211 96.2323 15.0041C96.2867 15.1871 96.2835 15.3989 96.2211 15.638C96.1586 15.8772 95.9938 16.1645 95.7296 16.4999C95.2974 17.036 94.8844 17.5961 94.4921 18.1803C94.0999 18.7645 93.7237 19.3326 93.3651 19.8847C93.0049 20.4368 92.6511 20.944 92.3005 21.4078C91.9499 21.8717 91.601 22.2488 91.252 22.5425C90.903 22.8362 90.546 23.0176 90.181 23.0898C89.816 23.162 89.4414 23.0834 89.0572 22.8571C88.8186 22.7191 88.6633 22.5281 88.5945 22.2873C88.5257 22.0466 88.5769 21.8091 88.7498 21.5747C88.8394 21.4512 88.9611 21.3324 89.1132 21.2168C89.2653 21.1013 89.3997 20.9633 89.5182 20.8028C89.7359 20.5075 89.864 20.2041 89.904 19.8912C89.944 19.5782 89.9216 19.2684 89.8368 18.9571C89.7519 18.6473 89.6127 18.3584 89.4206 18.0936C89.2269 17.8272 88.9963 17.5945 88.7258 17.3939C88.4184 17.166 88.0966 17.0183 87.7588 16.9493C87.4211 16.8803 87.0849 16.8787 86.7519 16.9461L86.7551 16.9429Z" fill="white"/>
<path d="M98.8593 27.6896C98.2782 28.651 97.9116 29.6605 97.7579 30.7214C97.6026 31.7806 97.6586 32.8591 97.926 33.9569C98.1917 35.0531 98.6752 36.0947 99.3764 37.0769C100.05 38.0223 100.862 38.8279 101.813 39.4908C102.764 40.1536 103.772 40.6159 104.84 40.8759C105.906 41.1359 106.993 41.1808 108.1 41.0091C109.206 40.8373 110.261 40.3912 111.268 39.6705C111.665 39.3865 112.073 39.0109 112.489 38.5423C112.905 38.0752 113.285 37.5344 113.627 36.9229C113.97 36.3114 114.25 35.6405 114.471 34.9087C114.69 34.1784 114.801 33.4129 114.802 32.612C114.802 31.8111 114.676 30.9878 114.418 30.1388C114.16 29.2897 113.725 28.4359 113.114 27.5773C112.387 26.5565 111.543 25.7268 110.583 25.0896C109.622 24.4524 108.613 24.0223 107.557 23.8024C106.5 23.5825 105.424 23.5809 104.334 23.7992C103.242 24.0175 102.205 24.4781 101.225 25.1795C100.231 25.8905 99.4452 26.7266 98.8641 27.688L98.8593 27.6896ZM102.809 33.4466C103.004 32.9587 103.262 32.4643 103.58 31.9636C103.899 31.4628 104.238 30.9942 104.602 30.5544C104.963 30.1163 105.325 29.7215 105.684 29.37C106.042 29.0185 106.353 28.7489 106.614 28.5627C106.838 28.4022 107.089 28.269 107.37 28.1631C107.65 28.0571 107.933 27.9994 108.218 27.9929C108.503 27.9865 108.78 28.0379 109.046 28.147C109.311 28.2578 109.537 28.4423 109.724 28.7039C109.982 29.065 110.109 29.4727 110.104 29.9269C110.099 30.3811 110.005 30.853 109.819 31.3441C109.633 31.8336 109.38 32.3263 109.057 32.8206C108.733 33.3149 108.391 33.7804 108.029 34.2201C107.667 34.6583 107.304 35.0499 106.941 35.395C106.577 35.74 106.252 36.0145 105.967 36.2199C105.719 36.3981 105.452 36.5425 105.165 36.6532C104.879 36.764 104.595 36.8218 104.317 36.8234C104.037 36.8266 103.769 36.764 103.511 36.6388C103.254 36.5136 103.022 36.3066 102.818 36.0209C102.578 35.6855 102.469 35.2938 102.488 34.8477C102.508 34.4015 102.617 33.9345 102.812 33.4466H102.809Z" fill="white"/>
<path d="M8.98286 99.8529C9.30144 99.6844 9.56238 99.4693 9.76729 99.2093C9.9722 98.9493 10.1243 98.6765 10.2235 98.3924C10.3228 98.1083 10.3868 97.8307 10.4156 97.5594C10.4429 97.2882 10.4477 97.0587 10.4269 96.8709C10.4237 96.7666 10.4269 96.6703 10.4317 96.582C10.4381 96.4921 10.4909 96.4215 10.5949 96.367C10.6974 96.3124 10.7919 96.2979 10.8783 96.3252C10.9647 96.3525 11.0576 96.3846 11.1569 96.4247C11.5299 96.582 11.9269 96.643 12.3463 96.6045C12.7657 96.566 13.1563 96.452 13.5165 96.261C13.8143 96.1021 14.0849 95.8935 14.3282 95.6319C14.5715 95.3703 14.7428 95.0429 14.8437 94.6465C14.9429 94.25 14.9493 93.783 14.8613 93.2421C14.7732 92.7013 14.5411 92.0769 14.1665 91.3659C14.0737 91.191 13.9744 91.0145 13.8655 90.8331C13.7583 90.6533 13.6526 90.4784 13.5502 90.3083C13.4365 90.1446 13.3276 89.9744 13.222 89.7995C13.1163 89.6246 13.0155 89.4448 12.9162 89.2586C12.7641 88.9697 12.6185 88.6825 12.4792 88.3936C12.3399 88.1047 12.2038 87.811 12.0726 87.5125C11.9301 87.2187 11.7892 86.9266 11.6499 86.6394C11.5106 86.3505 11.365 86.0616 11.2129 85.7743C11.1472 85.6507 11.0624 85.5335 10.9583 85.4244C10.8543 85.3153 10.7374 85.2254 10.6094 85.1548C10.4797 85.0842 10.3436 85.0424 10.1963 85.028C10.0506 85.0135 9.90497 85.044 9.76089 85.1211C9.58639 85.2142 9.47753 85.3137 9.43591 85.4212C9.39429 85.5287 9.37668 85.6411 9.38468 85.755C9.39269 85.869 9.40389 85.9958 9.4167 86.1338C9.43111 86.2718 9.40549 86.4163 9.34146 86.5687C9.27742 86.7212 9.15255 86.8833 8.96685 87.055C8.78115 87.2268 8.48659 87.4049 8.08637 87.5911L3.55909 89.777C3.11725 89.9857 2.75705 90.1269 2.4817 90.2007C2.20475 90.2746 1.97902 90.3067 1.80132 90.2954C1.62363 90.2842 1.48275 90.2473 1.37709 90.1847C1.27143 90.1221 1.17698 90.0659 1.09214 90.0194C1.00729 89.9712 0.919241 89.9407 0.824789 89.9247C0.730337 89.9086 0.602267 89.9439 0.437377 90.0306C0.17003 90.1719 0.0259511 90.3901 0.0051397 90.6854C-0.0172726 90.9807 0.0355564 91.2456 0.160425 91.4831C0.44378 92.0191 0.738342 92.5408 1.04731 93.0495C1.19939 93.3111 1.34668 93.5727 1.49075 93.8327C1.63483 94.0927 1.77731 94.356 1.91819 94.624C2.04306 94.8599 2.16472 95.0958 2.28159 95.3302C2.39845 95.5645 2.51532 95.802 2.63058 96.046C2.8451 96.5258 3.08683 97.0234 3.35898 97.537C3.7672 98.3089 4.21865 98.9028 4.71492 99.3185C5.21119 99.7341 5.70907 100.017 6.20854 100.167C6.70801 100.317 7.19788 100.354 7.67815 100.278C8.15681 100.201 8.59225 100.06 8.98286 99.8529ZM8.81477 91.971C8.94764 91.8603 9.16216 91.7271 9.45992 91.5682L10.7086 90.9053C10.8207 90.8459 10.9311 90.7865 11.04 90.7288C11.1472 90.671 11.2513 90.6325 11.3538 90.6116C11.4546 90.5907 11.5491 90.6036 11.6387 90.6469C11.7284 90.6918 11.8116 90.7865 11.8869 90.931C12.0005 91.1477 12.0453 91.3515 12.0213 91.5409C11.9973 91.7319 11.9317 91.9084 11.8276 92.0689C11.722 92.231 11.5843 92.3754 11.4162 92.5054C11.2481 92.6338 11.0768 92.7446 10.9023 92.8377C10.6862 92.9516 10.4797 93.0415 10.2844 93.1057C10.0875 93.1699 9.90016 93.194 9.72087 93.1779C9.54157 93.1619 9.37348 93.0993 9.21819 92.9901C9.06291 92.881 8.92363 92.7141 8.80516 92.4878C8.6803 92.2519 8.6835 92.0769 8.81637 91.9678L8.81477 91.971ZM7.39959 94.8198C7.29394 95.0076 7.14505 95.1793 6.95135 95.335C6.75764 95.4907 6.54152 95.6319 6.30619 95.7571C5.90597 95.9705 5.52497 96.0604 5.16637 96.0267C4.80617 95.993 4.51001 95.7555 4.27628 95.3125C4.21065 95.1889 4.16582 95.075 4.14341 94.9674C4.1194 94.8615 4.14661 94.7444 4.22505 94.6176C4.3019 94.4908 4.45558 94.3431 4.6829 94.1762C4.91023 94.0093 5.24961 93.8055 5.70106 93.5663L6.47108 93.1571C6.64078 93.08 6.80086 93.0511 6.94815 93.072C7.09703 93.0913 7.2331 93.2196 7.35957 93.4572C7.50045 93.7252 7.56929 93.9724 7.56448 94.1987C7.55968 94.425 7.50525 94.632 7.39959 94.8198Z" fill="white"/>
<path d="M18.5193 108.467C18.4905 108.189 18.4184 107.897 18.3032 107.594C18.2679 107.484 18.2391 107.377 18.2167 107.273C18.1943 107.168 18.2295 107.074 18.3256 106.989C18.404 106.918 18.4761 106.891 18.5401 106.902C18.6057 106.915 18.6826 106.936 18.7706 106.964C19.2685 107.175 19.7744 107.218 20.2883 107.094C20.8021 106.971 21.2536 106.735 21.6442 106.387C22.078 105.998 22.3614 105.573 22.4943 105.111C22.6287 104.649 22.6512 104.178 22.5631 103.703C22.4751 103.228 22.307 102.763 22.0572 102.307C21.8075 101.851 21.5209 101.44 21.196 101.074C21.0103 100.866 20.8181 100.659 20.6196 100.453C20.4211 100.248 20.2242 100.044 20.0305 99.8433C19.8192 99.6411 19.6175 99.4405 19.4238 99.2382C19.2301 99.0376 19.0396 98.8322 18.8539 98.6235C18.7386 98.4935 18.6249 98.3571 18.5129 98.2143C18.4008 98.0714 18.2968 97.927 18.1975 97.7809C18.0822 97.6349 17.9718 97.492 17.8645 97.354C17.7573 97.216 17.642 97.0764 17.5171 96.9383C17.4019 96.8083 17.2546 96.6607 17.0801 96.4986C16.904 96.3349 16.7183 96.2017 16.523 96.0957C16.3277 95.9898 16.1276 95.9256 15.9227 95.9064C15.7177 95.8855 15.524 95.9577 15.3431 96.1198C15.2039 96.2434 15.127 96.3557 15.1142 96.4536C15.0998 96.5515 15.1094 96.6543 15.1398 96.7586C15.1702 96.8629 15.2055 96.9769 15.2439 97.0988C15.2823 97.2208 15.2823 97.3653 15.2439 97.5322C15.2055 97.6991 15.1126 97.8917 14.9637 98.1099C14.8149 98.3282 14.5715 98.5882 14.2337 98.8916L10.5245 102.206C10.2379 102.461 9.98821 102.641 9.77689 102.745C9.56558 102.848 9.37507 102.909 9.20378 102.928C9.03409 102.947 8.8836 102.941 8.75393 102.909C8.62426 102.877 8.5042 102.843 8.39534 102.808C8.28648 102.772 8.17922 102.758 8.07676 102.764C7.9727 102.771 7.86545 102.825 7.75178 102.925C7.51805 103.133 7.4236 103.397 7.47163 103.713C7.51966 104.029 7.63332 104.35 7.81102 104.673C7.99031 104.997 8.19843 105.302 8.43856 105.587C8.67709 105.873 8.86599 106.095 9.00527 106.252C9.47753 106.781 9.87615 107.188 10.2011 107.465C10.5261 107.744 10.8015 107.939 11.0256 108.051C11.2497 108.163 11.437 108.202 11.5875 108.17C11.7364 108.138 11.8724 108.067 11.9941 107.958C12.151 107.818 12.2342 107.68 12.247 107.545C12.2583 107.411 12.2502 107.273 12.2214 107.135C12.1926 106.997 12.175 106.855 12.1718 106.711C12.167 106.566 12.2278 106.416 12.3527 106.257C12.5032 106.059 12.6905 105.849 12.913 105.626C13.1355 105.403 13.342 105.207 13.5326 105.037C13.7407 104.851 13.9072 104.714 14.032 104.626C14.1569 104.538 14.261 104.485 14.3442 104.464C14.4274 104.445 14.4995 104.454 14.5587 104.494C14.6179 104.535 14.6788 104.589 14.7412 104.66C14.9045 104.843 15.0038 105.026 15.0438 105.21C15.0822 105.395 15.0822 105.573 15.0438 105.75C15.0054 105.924 14.9365 106.103 14.8405 106.282C14.7428 106.462 14.6372 106.635 14.5203 106.802C14.1793 107.295 13.8751 107.749 13.6094 108.168C13.342 108.585 13.166 109.006 13.0811 109.425C12.9947 109.845 13.0203 110.275 13.1563 110.717C13.2908 111.158 13.5918 111.64 14.056 112.161C14.381 112.527 14.6916 112.814 14.9878 113.026C15.2839 113.237 15.5545 113.383 15.7962 113.463C16.0379 113.543 16.2556 113.567 16.4461 113.537C16.6367 113.506 16.7935 113.437 16.9152 113.328C17.1153 113.15 17.1954 112.996 17.1585 112.866C17.1201 112.736 17.0689 112.598 17.0033 112.455C16.9376 112.311 16.9008 112.139 16.896 111.941C16.8912 111.742 17.0241 111.49 17.2978 111.184C17.6052 110.831 17.8549 110.499 18.047 110.187C18.2375 109.876 18.372 109.581 18.4488 109.301C18.5273 109.02 18.5513 108.741 18.5209 108.463L18.5193 108.467ZM17.1441 103.913C16.7791 103.95 16.4077 103.756 16.0283 103.329C15.9355 103.225 15.8826 103.132 15.8714 103.048C15.8602 102.965 15.8746 102.889 15.9163 102.822C15.9579 102.755 16.0155 102.69 16.094 102.628C16.1708 102.567 16.2572 102.501 16.3517 102.432L17.634 101.379C17.7461 101.294 17.8453 101.217 17.9318 101.148C18.0182 101.079 18.1079 101.031 18.1991 101.002C18.292 100.975 18.3832 100.978 18.4761 101.012C18.5689 101.047 18.6698 101.124 18.7786 101.246C18.9483 101.437 19.0492 101.625 19.0796 101.808C19.11 101.991 19.094 102.17 19.03 102.344C18.9659 102.519 18.8683 102.687 18.7354 102.853C18.6025 103.018 18.4585 103.17 18.3016 103.31C17.8933 103.674 17.5075 103.875 17.1441 103.912V103.913Z" fill="white"/>
<path d="M31.1486 109.641C30.9885 109.325 30.7468 109.061 30.4282 108.849C30.108 108.637 29.8055 108.499 29.5205 108.435C29.2356 108.372 28.9714 108.375 28.7297 108.446C28.4879 108.516 28.2654 108.637 28.0605 108.81C27.8556 108.982 27.6715 109.195 27.505 109.447C27.3129 109.739 27.084 110.011 26.8214 110.263C26.5573 110.515 26.2771 110.754 25.981 110.983C25.6832 111.213 25.3806 111.428 25.0749 111.628C24.7675 111.831 24.4729 112.018 24.1896 112.195L21.9564 113.585C21.6954 113.747 21.3913 113.933 21.0439 114.143C20.6965 114.354 20.3763 114.501 20.0833 114.586C19.8864 114.652 19.7007 114.665 19.5246 114.625C19.3485 114.585 19.182 114.553 19.0268 114.525C18.8699 114.498 18.7242 114.493 18.5881 114.508C18.4536 114.522 18.3272 114.618 18.2119 114.793C18.1351 114.911 18.0854 115.034 18.0614 115.164C18.0374 115.296 18.0726 115.451 18.1687 115.634C18.2647 115.817 18.4488 116.029 18.7194 116.272C18.9915 116.514 19.3886 116.809 19.912 117.156C20.0577 117.252 20.2546 117.376 20.5028 117.527C20.7509 117.677 21.0118 117.801 21.2824 117.897C21.5529 117.994 21.8123 118.039 22.0588 118.035C22.3054 118.031 22.5023 117.918 22.6495 117.694C22.7712 117.509 22.808 117.348 22.7584 117.21C22.7088 117.072 22.6383 116.949 22.5439 116.838C22.4494 116.727 22.3678 116.617 22.3005 116.509C22.2317 116.402 22.2461 116.275 22.3422 116.129C22.4574 115.954 22.5759 115.833 22.696 115.766C22.816 115.699 22.9457 115.676 23.085 115.699C23.2227 115.721 23.3683 115.776 23.5204 115.862C23.6725 115.949 23.8454 116.056 24.0391 116.185C24.6202 116.57 25.0861 116.889 25.4351 117.141C25.7841 117.393 26.037 117.607 26.1939 117.78C26.3508 117.955 26.4308 118.108 26.4324 118.242C26.434 118.377 26.3812 118.526 26.2723 118.692C26.1891 118.819 26.085 118.875 25.9618 118.864C25.8369 118.851 25.7056 118.83 25.5647 118.799C25.4239 118.769 25.2846 118.759 25.1437 118.772C25.0028 118.783 24.8764 118.878 24.7595 119.053C24.6122 119.276 24.5722 119.501 24.6394 119.727C24.7067 119.953 24.8636 120.189 25.1117 120.438C25.3582 120.685 25.6864 120.952 26.0914 121.234C26.4965 121.517 26.9623 121.833 27.4858 122.179C27.6699 122.301 27.918 122.463 28.2318 122.664C28.5456 122.865 28.8754 123.035 29.2227 123.174C29.5701 123.314 29.9015 123.386 30.2169 123.394C30.5323 123.401 30.7772 123.274 30.9501 123.011C31.0846 122.807 31.1278 122.646 31.0782 122.531C31.0285 122.414 30.9533 122.298 30.8492 122.179C30.7452 122.062 30.6475 121.91 30.5547 121.722C30.4618 121.534 30.4506 121.261 30.5195 120.902C30.5611 120.65 30.6139 120.287 30.6827 119.815C30.75 119.343 30.8236 118.827 30.9021 118.263C30.9805 117.7 31.0574 117.119 31.1326 116.519C31.2078 115.918 31.2767 115.365 31.3407 114.854C31.4047 114.346 31.456 113.907 31.4944 113.543C31.5328 113.177 31.5552 112.948 31.5616 112.855C31.576 112.514 31.5856 112.158 31.5888 111.782C31.592 111.407 31.5584 111.036 31.488 110.667C31.4175 110.3 31.3007 109.956 31.1406 109.641H31.1486ZM27.5242 113.631C27.5146 113.752 27.505 113.85 27.497 113.927C27.4938 113.994 27.4842 114.103 27.4698 114.254C27.4538 114.405 27.4378 114.561 27.4202 114.724C27.4025 114.888 27.3817 115.037 27.3545 115.174C27.3273 115.31 27.2953 115.406 27.2569 115.466C27.2184 115.524 27.1672 115.549 27.1016 115.541C27.0375 115.533 26.9703 115.514 26.8999 115.482C26.8294 115.45 26.7638 115.413 26.7014 115.371C26.6373 115.329 26.5877 115.296 26.5493 115.27L25.4591 114.546C25.4207 114.521 25.3726 114.488 25.3134 114.45C25.2558 114.411 25.1997 114.368 25.1485 114.32C25.0957 114.272 25.0605 114.22 25.0413 114.166C25.022 114.111 25.0316 114.055 25.0701 113.996C25.0957 113.957 25.1501 113.903 25.2318 113.83C25.3134 113.758 25.4047 113.691 25.5039 113.623C25.6032 113.556 25.696 113.492 25.7793 113.429C25.8625 113.367 25.9265 113.322 25.9714 113.294C26.0066 113.262 26.0802 113.203 26.1939 113.116C26.3059 113.031 26.4324 112.946 26.5701 112.863C26.7078 112.779 26.8438 112.717 26.9783 112.672C27.1128 112.627 27.2216 112.635 27.3097 112.693C27.3865 112.744 27.4442 112.823 27.4778 112.93C27.5114 113.036 27.5306 113.15 27.5338 113.272C27.537 113.394 27.5338 113.514 27.5258 113.633L27.5242 113.631Z" fill="white"/>
<path d="M47.8778 116.914C47.6104 116.759 47.3223 116.628 47.0149 116.522C46.7075 116.416 46.4546 116.329 46.2545 116.265C46.056 116.199 45.787 116.116 45.4476 116.012C45.1082 115.907 44.7672 115.835 44.4263 115.798C44.0837 115.76 43.7683 115.782 43.4785 115.865C43.1888 115.949 42.9935 116.146 42.8926 116.456C42.8638 116.544 42.851 116.629 42.8558 116.711C42.8606 116.793 42.8686 116.872 42.8798 116.949C42.891 117.026 42.9006 117.103 42.907 117.178C42.9134 117.254 42.9022 117.336 42.8734 117.424C42.8414 117.523 42.7165 117.663 42.4988 117.844C42.2811 118.024 42.0394 118.204 41.7752 118.38C41.5095 118.557 41.2485 118.705 40.9892 118.823C40.7314 118.941 40.5457 118.982 40.4353 118.945C40.3584 118.92 40.3088 118.876 40.2864 118.814C40.264 118.751 40.2544 118.677 40.2576 118.592C40.2608 118.507 40.272 118.425 40.2912 118.347C40.3104 118.268 40.3296 118.201 40.3472 118.145C40.5057 117.657 40.6674 117.318 40.8339 117.127C41.0004 116.936 41.1589 116.804 41.311 116.731C41.463 116.658 41.5991 116.596 41.7208 116.543C41.8424 116.49 41.9385 116.353 42.0105 116.132C42.1034 115.845 42.0826 115.591 41.9449 115.376C41.8072 115.159 41.6167 114.975 41.3734 114.822C41.1301 114.67 40.8691 114.541 40.5906 114.439C40.312 114.336 40.0735 114.251 39.875 114.187C38.9689 113.891 38.2613 113.715 37.7538 113.66C37.2463 113.604 36.8653 113.609 36.6124 113.673C36.3594 113.737 36.1994 113.832 36.1353 113.959C36.0697 114.084 36.0265 114.18 36.0056 114.248C35.9224 114.503 35.9144 114.689 35.9784 114.809C36.0441 114.928 36.1257 115.044 36.2234 115.156C36.321 115.268 36.4075 115.416 36.4827 115.599C36.5579 115.782 36.5644 116.061 36.5051 116.434C36.4283 116.973 36.3034 117.525 36.1305 118.095C35.9576 118.663 35.7879 119.209 35.6182 119.729C35.4629 120.205 35.2949 120.695 35.114 121.2C34.9315 121.704 34.7265 122.176 34.4976 122.617C34.3311 122.943 34.1678 123.163 34.0093 123.276C33.8493 123.389 33.6988 123.468 33.5563 123.513C33.4138 123.558 33.2826 123.611 33.1657 123.67C33.0488 123.73 32.956 123.866 32.8871 124.076C32.8407 124.221 32.8279 124.364 32.8487 124.505C32.8695 124.646 32.9672 124.799 33.1417 124.959C33.3162 125.12 33.5899 125.29 33.9661 125.468C34.3423 125.646 34.8562 125.842 35.5094 126.054C36.2394 126.291 36.8301 126.453 37.2847 126.542C37.7394 126.628 38.0964 126.659 38.3557 126.633C38.6151 126.607 38.7992 126.545 38.9112 126.447C39.0217 126.349 39.1001 126.233 39.1434 126.1C39.2074 125.901 39.2058 125.72 39.137 125.556C39.0665 125.392 38.9881 125.235 38.8968 125.083C38.8056 124.93 38.7239 124.776 38.6535 124.617C38.5831 124.46 38.5799 124.28 38.6439 124.081L38.7576 123.731C38.836 123.487 38.9337 123.284 39.0489 123.118C39.1626 122.953 39.3307 122.908 39.5516 122.979C39.6508 123.011 39.7565 123.117 39.8702 123.295C39.9838 123.473 40.0943 123.677 40.2031 123.908C40.312 124.139 40.4097 124.364 40.4977 124.584C40.5858 124.802 40.6498 124.961 40.6914 125.06L41.3702 126.808C41.471 127.062 41.5527 127.262 41.6135 127.411C41.676 127.561 41.7368 127.68 41.8008 127.766C41.8633 127.854 41.9401 127.919 42.0313 127.96C42.121 128.002 42.2491 128.05 42.4156 128.105L45.2347 129.024C45.3996 129.079 45.5709 129.126 45.7486 129.164C45.9247 129.203 46.0992 129.217 46.2673 129.204C46.437 129.193 46.5874 129.14 46.7203 129.049C46.8532 128.957 46.9556 128.806 47.0229 128.596C47.1061 128.341 47.1125 128.129 47.0453 127.96C46.9781 127.792 46.8804 127.633 46.7507 127.487C46.6211 127.341 46.4834 127.201 46.3377 127.066C46.192 126.933 46.08 126.774 46.0063 126.59L43.8307 121.488C43.7491 121.289 43.6626 121.066 43.573 120.815C43.4833 120.565 43.4737 120.329 43.5458 120.107C43.6034 119.931 43.7395 119.766 43.954 119.615C44.1685 119.464 44.4055 119.324 44.668 119.196C44.9305 119.067 45.1803 118.955 45.4188 118.862C45.6573 118.769 45.835 118.692 45.9519 118.631C46.1424 118.535 46.3681 118.522 46.6323 118.595C46.8948 118.669 47.1542 118.738 47.4087 118.803C47.6632 118.867 47.9002 118.878 48.1227 118.833C48.3436 118.79 48.5117 118.595 48.6222 118.252C48.7198 117.954 48.6862 117.694 48.5261 117.477C48.3644 117.259 48.1499 117.072 47.8826 116.918L47.8778 116.914Z" fill="white"/>
<path d="M60.6239 126.288C60.3806 126.27 60.1933 126.32 60.0636 126.432C59.9339 126.546 59.8123 126.689 59.7018 126.863C59.5914 127.036 59.4729 127.227 59.348 127.434C59.2232 127.641 59.0471 127.827 58.8197 127.992C58.5924 128.158 58.2931 128.289 57.9184 128.386C57.5454 128.482 57.062 128.511 56.4713 128.469C56.0182 128.439 55.6596 128.408 55.3939 128.378C55.1281 128.347 54.9296 128.256 54.8015 128.1C54.6719 127.946 54.6014 127.7 54.5902 127.367C54.579 127.033 54.595 126.546 54.6382 125.908C54.6479 125.768 54.6607 125.627 54.6767 125.481C54.6927 125.336 54.7247 125.206 54.7727 125.094C54.8207 124.98 54.8976 124.89 55.0016 124.821C55.1057 124.752 55.2498 124.725 55.4355 124.738C55.7252 124.759 55.943 124.82 56.087 124.924C56.2311 125.028 56.3336 125.149 56.3944 125.287C56.4552 125.425 56.4905 125.574 56.5033 125.733C56.5161 125.892 56.5353 126.039 56.5609 126.174C56.5865 126.311 56.6329 126.428 56.7034 126.526C56.7722 126.623 56.8939 126.678 57.0668 126.691C57.3213 126.709 57.5358 126.609 57.7071 126.394C57.8784 126.179 58.0161 125.922 58.1186 125.625C58.221 125.328 58.2947 125.022 58.3395 124.702C58.3843 124.385 58.4131 124.137 58.4259 123.964C58.4371 123.789 58.4451 123.553 58.4483 123.256C58.4515 122.959 58.4275 122.666 58.3779 122.375C58.3283 122.086 58.237 121.828 58.1073 121.603C57.9777 121.378 57.784 121.257 57.5294 121.239C57.3213 121.224 57.166 121.261 57.0684 121.346C56.9691 121.433 56.8907 121.547 56.8347 121.69C56.7786 121.833 56.7354 121.987 56.7066 122.154C56.6778 122.321 56.6345 122.476 56.5785 122.618C56.5225 122.76 56.4392 122.874 56.3272 122.959C56.2167 123.046 56.0502 123.08 55.8309 123.065C55.5636 123.048 55.3554 123.027 55.2066 123.004C55.0561 122.982 54.9488 122.934 54.8848 122.86C54.8207 122.786 54.7839 122.679 54.7759 122.537C54.7679 122.396 54.7727 122.199 54.7903 121.943C54.8239 121.444 54.8528 121.04 54.8736 120.732C54.8944 120.424 54.96 120.189 55.0705 120.027C55.1809 119.865 55.357 119.764 55.5988 119.722C55.8405 119.68 56.2055 119.677 56.6922 119.711C57.2365 119.748 57.6719 119.82 57.9969 119.924C58.3219 120.029 58.5716 120.151 58.7493 120.292C58.9254 120.433 59.0551 120.576 59.1383 120.722C59.2216 120.868 59.3 121.008 59.372 121.141C59.4441 121.274 59.5321 121.387 59.6378 121.475C59.7418 121.563 59.9099 121.616 60.1421 121.632C60.3166 121.643 60.4638 121.616 60.5839 121.549C60.7056 121.481 60.8048 121.388 60.8833 121.271C60.9617 121.154 61.0193 121.021 61.0594 120.871C61.0978 120.722 61.1234 120.578 61.133 120.438C61.1458 120.252 61.1362 120.014 61.1042 119.727C61.0706 119.438 61.0065 119.159 60.9073 118.889C60.8096 118.62 60.6768 118.385 60.5103 118.188C60.3438 117.989 60.1389 117.881 59.8939 117.865C59.8235 117.86 59.7386 117.872 59.6378 117.901C59.5369 117.928 59.3833 117.96 59.1767 117.992C58.9702 118.024 58.6901 118.047 58.3331 118.056C57.9761 118.066 57.5086 118.051 56.9291 118.011L51.92 117.665C51.7455 117.652 51.5341 117.636 51.286 117.612C51.0363 117.589 50.7977 117.589 50.5688 117.615C50.3399 117.641 50.1398 117.711 49.9685 117.827C49.7972 117.944 49.7027 118.135 49.6835 118.403C49.6691 118.612 49.6915 118.759 49.7492 118.846C49.8068 118.931 49.8868 118.998 49.9893 119.047C50.0918 119.095 50.199 119.14 50.3127 119.183C50.4263 119.226 50.5336 119.31 50.6361 119.433C50.7385 119.557 50.8186 119.743 50.8778 119.993C50.937 120.242 50.961 120.589 50.9546 121.032C50.9418 121.557 50.9338 121.996 50.9338 122.353C50.9338 122.709 50.9258 123.024 50.913 123.298C50.9002 123.571 50.8858 123.821 50.8698 124.049C50.8538 124.275 50.8282 124.523 50.7929 124.789C50.7577 125.055 50.7161 125.365 50.6681 125.718C50.62 126.071 50.5608 126.514 50.4888 127.046C50.4439 127.359 50.3815 127.599 50.2999 127.768C50.2182 127.938 50.1238 128.068 50.0197 128.159C49.9141 128.251 49.8084 128.317 49.6995 128.357C49.5923 128.397 49.4898 128.435 49.3938 128.476C49.2977 128.516 49.2177 128.572 49.1552 128.643C49.0912 128.715 49.0544 128.832 49.0432 128.994C49.04 129.052 49.04 129.126 49.0464 129.214C49.0512 129.302 49.0896 129.386 49.16 129.467C49.2305 129.549 49.3409 129.623 49.493 129.692C49.6451 129.761 49.8676 129.806 50.1574 129.825L57.3053 130.32C57.6063 130.341 57.8752 130.368 58.1122 130.402C58.3491 130.435 58.5652 130.471 58.7605 130.507C58.9446 130.543 59.1015 130.578 59.2344 130.61C59.3656 130.642 59.4617 130.662 59.5193 130.665C59.6938 130.678 59.8843 130.573 60.0908 130.353C60.2974 130.133 60.4943 129.859 60.68 129.527C60.8657 129.195 61.0241 128.845 61.1538 128.474C61.2835 128.103 61.3603 127.768 61.3811 127.464C61.3988 127.221 61.3459 126.969 61.2243 126.709C61.1026 126.449 60.9025 126.311 60.6239 126.291V126.288Z" fill="white"/>
<path d="M75.4945 119.862C75.1567 119.17 74.6925 118.583 74.1017 118.1C73.511 117.617 72.781 117.276 71.9085 117.079C71.0377 116.881 70.0051 116.886 68.814 117.092L63.2142 118.063C63.0653 118.088 62.9004 118.128 62.7227 118.183C62.5434 118.238 62.3753 118.311 62.2216 118.403C62.0663 118.494 61.9447 118.61 61.8566 118.75C61.7686 118.889 61.7414 119.056 61.775 119.252C61.807 119.437 61.8614 119.568 61.9415 119.648C62.0199 119.73 62.1128 119.788 62.2184 119.822C62.3241 119.857 62.4361 119.884 62.5514 119.905C62.6667 119.928 62.7787 119.976 62.886 120.051C62.9932 120.127 63.0925 120.241 63.1838 120.39C63.275 120.539 63.339 120.765 63.3807 121.066L64.274 127.066C64.3364 127.493 64.3508 127.822 64.3204 128.052C64.29 128.281 64.2291 128.461 64.1379 128.59C64.0482 128.718 63.9458 128.809 63.8321 128.864C63.7184 128.919 63.6144 128.973 63.5231 129.024C63.4319 129.076 63.3583 129.148 63.3038 129.24C63.2494 129.333 63.2398 129.482 63.275 129.687C63.3054 129.859 63.3711 130.002 63.4735 130.114C63.5744 130.227 63.6976 130.308 63.8433 130.36C63.9874 130.411 64.1411 130.443 64.3028 130.458C64.4645 130.471 64.6197 130.464 64.7686 130.438C65.2601 130.353 65.7452 130.251 66.2206 130.133C66.4592 130.081 66.7009 130.029 66.9458 129.981C67.1908 129.933 67.4341 129.888 67.6742 129.846C67.9143 129.804 68.1561 129.766 68.3978 129.729C68.6395 129.694 68.8925 129.658 69.1582 129.623C69.6913 129.565 70.3237 129.474 71.0569 129.347C72.1455 129.159 73.0516 128.824 73.7768 128.342C74.502 127.862 75.0671 127.288 75.4705 126.62C75.8739 125.953 76.1317 125.226 76.2437 124.438C76.3558 123.65 76.3414 122.853 76.2037 122.049C76.0708 121.281 75.8355 120.549 75.4977 119.857L75.4945 119.862ZM71.7196 126.025C71.6028 126.447 71.4011 126.811 71.1113 127.115C70.8215 127.42 70.4085 127.619 69.869 127.712C69.6401 127.752 69.4496 127.761 69.2991 127.739C69.147 127.718 69.027 127.662 68.9341 127.572C68.8413 127.482 68.7708 127.362 68.7212 127.209C68.6716 127.058 68.6283 126.874 68.5899 126.656L67.4805 120.231C67.4533 120.07 67.4341 119.929 67.4245 119.806C67.4149 119.684 67.4293 119.581 67.4677 119.496C67.5061 119.412 67.5734 119.342 67.6694 119.284C67.7655 119.226 67.9047 119.181 68.0888 119.149C68.4202 119.091 68.766 119.088 69.1214 119.138C69.4784 119.188 69.8194 119.356 70.146 119.644C70.4726 119.929 70.7751 120.363 71.0521 120.942C71.329 121.521 71.5547 122.316 71.7292 123.325C71.8045 123.762 71.8509 124.214 71.8669 124.685C71.8829 125.155 71.8333 125.601 71.718 126.023L71.7196 126.025Z" fill="white"/>
<path d="M92.6463 119.78C92.5214 119.761 92.3821 119.766 92.2285 119.793C92.0748 119.82 91.8939 119.825 91.6858 119.806C91.4777 119.786 91.2407 119.655 90.9702 119.408C90.7765 119.241 90.4979 119.006 90.1313 118.701C89.7647 118.396 89.3629 118.064 88.9258 117.703C88.4888 117.342 88.0342 116.973 87.5635 116.596C87.0928 116.219 86.6574 115.869 86.2572 115.548C85.857 115.227 85.5128 114.955 85.2214 114.731C84.9317 114.508 84.7476 114.368 84.6707 114.314C84.3906 114.124 84.0896 113.928 83.7726 113.731C83.4557 113.532 83.1227 113.368 82.7721 113.235C82.4215 113.103 82.0709 113.023 81.7171 112.996C81.3633 112.969 81.0143 113.036 80.6669 113.198C80.3195 113.36 80.0442 113.548 79.8409 113.758C79.6376 113.968 79.5031 114.196 79.4375 114.44C79.3718 114.684 79.3574 114.938 79.3974 115.201C79.4375 115.466 79.5207 115.735 79.6488 116.01C79.796 116.326 79.9081 116.663 79.9849 117.019C80.0618 117.376 80.1194 117.742 80.1594 118.116C80.1995 118.49 80.2251 118.86 80.2347 119.228C80.2459 119.595 80.2523 119.947 80.2539 120.281L80.2699 122.916C80.2715 123.224 80.2715 123.58 80.2699 123.987C80.2667 124.393 80.2251 124.744 80.145 125.039C80.0986 125.242 80.0122 125.407 79.8873 125.537C79.7608 125.667 79.6456 125.792 79.5415 125.911C79.4358 126.031 79.3558 126.152 79.2982 126.275C79.2405 126.399 79.2549 126.556 79.3446 126.745C79.4038 126.872 79.4839 126.98 79.5815 127.068C79.6808 127.156 79.8329 127.208 80.0378 127.221C80.2427 127.233 80.5196 127.188 80.8686 127.082C81.2176 126.977 81.6755 126.79 82.2438 126.524C82.4023 126.45 82.6104 126.346 82.8681 126.213C83.1259 126.079 83.3676 125.92 83.5901 125.739C83.8143 125.558 83.9871 125.36 84.1136 125.147C84.2385 124.933 84.2449 124.706 84.1312 124.463C84.0384 124.263 83.9199 124.147 83.7774 124.118C83.6349 124.089 83.4925 124.084 83.3484 124.107C83.2043 124.129 83.0682 124.142 82.9418 124.144C82.8137 124.145 82.7144 124.067 82.6392 123.909C82.5496 123.72 82.5095 123.555 82.5159 123.417C82.5223 123.279 82.5704 123.157 82.6616 123.049C82.7529 122.943 82.8745 122.847 83.0282 122.762C83.1803 122.677 83.3628 122.585 83.5741 122.488C84.2065 122.192 84.7203 121.959 85.1174 121.793C85.5144 121.626 85.8282 121.521 86.0571 121.478C86.2876 121.435 86.4589 121.448 86.5742 121.515C86.6894 121.584 86.7887 121.708 86.8719 121.887C86.936 122.025 86.9296 122.142 86.8543 122.242C86.7791 122.341 86.691 122.444 86.5934 122.548C86.4941 122.653 86.4141 122.768 86.35 122.894C86.286 123.02 86.2988 123.178 86.3885 123.367C86.5021 123.609 86.6718 123.762 86.8991 123.823C87.1265 123.884 87.4098 123.873 87.7508 123.791C88.0902 123.709 88.4872 123.568 88.9403 123.369C89.3933 123.17 89.9024 122.937 90.4723 122.67C90.6724 122.577 90.9398 122.449 91.2743 122.285C91.6089 122.122 91.9259 121.929 92.2253 121.704C92.5246 121.481 92.76 121.236 92.9312 120.969C93.1025 120.703 93.1217 120.427 92.9889 120.141C92.8848 119.92 92.7712 119.799 92.6479 119.78H92.6463ZM84.6227 119.536C84.5827 119.587 84.5298 119.634 84.4674 119.677C84.4034 119.721 84.3377 119.757 84.2689 119.79C84.2001 119.822 84.1456 119.847 84.104 119.867L82.9194 120.422C82.8777 120.441 82.8249 120.467 82.7609 120.496C82.6968 120.525 82.6328 120.55 82.564 120.568C82.4951 120.587 82.4327 120.59 82.3767 120.579C82.319 120.568 82.2758 120.529 82.247 120.467C82.2278 120.425 82.2086 120.35 82.191 120.242C82.1734 120.135 82.1621 120.021 82.1573 119.902C82.1525 119.782 82.1461 119.669 82.1349 119.565C82.1253 119.461 82.1205 119.382 82.1221 119.331C82.1125 119.284 82.1013 119.189 82.0869 119.048C82.0725 118.907 82.0661 118.756 82.0677 118.594C82.0693 118.432 82.0869 118.283 82.1189 118.146C82.1509 118.01 82.215 117.918 82.3094 117.873C82.3927 117.835 82.4903 117.827 82.5992 117.854C82.708 117.881 82.8137 117.925 82.9194 117.984C83.025 118.045 83.1243 118.109 83.2219 118.18C83.3196 118.25 83.398 118.31 83.4589 118.358C83.5149 118.396 83.6029 118.461 83.723 118.552C83.8431 118.644 83.9679 118.74 84.0976 118.839C84.2273 118.939 84.3425 119.037 84.445 119.13C84.5474 119.225 84.6115 119.303 84.6419 119.366C84.6723 119.428 84.6659 119.486 84.6259 119.538L84.6227 119.536Z" fill="white"/>
<path d="M104.719 110.369C104.541 110.06 104.338 109.771 104.109 109.5C103.88 109.229 103.7 109.019 103.572 108.868L100.646 105.42C100.54 105.297 100.42 105.154 100.284 104.995C100.148 104.836 100.018 104.668 99.8919 104.493C99.7654 104.318 99.6469 104.143 99.5381 103.968C99.4276 103.795 99.3428 103.626 99.2819 103.464C99.2067 103.268 99.1971 103.093 99.2499 102.941C99.3044 102.788 99.3588 102.642 99.4148 102.501C99.4708 102.361 99.5029 102.219 99.5109 102.076C99.5189 101.931 99.4436 101.766 99.2851 101.58C99.0898 101.349 98.8657 101.243 98.6128 101.259C98.3598 101.276 98.1021 101.354 97.8396 101.493C97.577 101.633 97.3289 101.8 97.0951 101.991C96.8614 102.183 96.6741 102.339 96.5316 102.459C96.3891 102.58 96.2131 102.735 96.0001 102.925C95.7872 103.114 95.5983 103.32 95.4366 103.543C95.2733 103.766 95.1677 103.994 95.1149 104.23C95.0636 104.466 95.1277 104.689 95.3086 104.902C95.459 105.08 95.6079 105.178 95.7552 105.199C95.9025 105.22 96.0466 105.215 96.189 105.185C96.3315 105.154 96.4804 105.128 96.6341 105.103C96.7894 105.079 96.9479 105.119 97.1127 105.221C97.2072 105.279 97.3065 105.351 97.4105 105.438C97.5146 105.525 97.617 105.623 97.7147 105.73C97.8139 105.838 97.9116 105.945 98.0108 106.051C98.1101 106.159 98.1933 106.252 98.2606 106.332C98.3054 106.385 98.3646 106.459 98.4351 106.55C98.5055 106.643 98.5663 106.741 98.616 106.844C98.6656 106.947 98.6896 107.049 98.6912 107.147C98.6912 107.247 98.6512 107.33 98.5727 107.398C98.5103 107.451 98.4239 107.489 98.3166 107.513C98.2078 107.537 98.0893 107.555 97.9596 107.565C97.8315 107.576 97.7067 107.582 97.5866 107.584C97.4665 107.587 97.3737 107.584 97.3081 107.581L91.8106 107.496C91.5465 107.491 91.3304 107.496 91.1607 107.512C90.991 107.526 90.8357 107.56 90.6948 107.61C90.554 107.661 90.4131 107.736 90.269 107.836C90.1249 107.935 89.952 108.073 89.7471 108.247C89.5966 108.375 89.3901 108.555 89.1276 108.786C88.8666 109.017 88.6265 109.271 88.412 109.547C88.1959 109.823 88.0406 110.104 87.9477 110.389C87.8549 110.675 87.9093 110.938 88.1126 111.177C88.2263 111.311 88.3367 111.392 88.4456 111.421C88.5545 111.45 88.6665 111.455 88.7786 111.436C88.8922 111.417 89.0091 111.389 89.1308 111.352C89.2524 111.317 89.3901 111.299 89.5438 111.299C89.6959 111.299 89.8624 111.333 90.0433 111.402C90.2226 111.471 90.4243 111.601 90.6484 111.792C91.1255 112.211 91.5769 112.657 92.0011 113.129C92.4254 113.601 92.84 114.078 93.2466 114.556C93.3747 114.707 93.5092 114.87 93.6516 115.047C93.7941 115.224 93.9366 115.405 94.0775 115.589C94.22 115.776 94.3576 115.96 94.4905 116.143C94.6234 116.328 94.737 116.503 94.8315 116.666C94.9772 116.91 95.0396 117.119 95.022 117.295C95.0028 117.472 94.9676 117.636 94.9147 117.788C94.8603 117.941 94.8267 118.09 94.8107 118.233C94.7947 118.376 94.8619 118.536 95.0124 118.714C95.1933 118.928 95.4126 119.034 95.6736 119.034C95.9329 119.034 96.1938 118.976 96.4548 118.862C96.7157 118.746 96.9655 118.602 97.2072 118.427C97.4473 118.252 97.6426 118.101 97.7947 117.973C97.9532 117.836 98.1389 117.663 98.3502 117.453C98.5599 117.243 98.7424 117.015 98.8929 116.771C99.045 116.527 99.1411 116.276 99.1827 116.02C99.2243 115.763 99.1507 115.524 98.9618 115.301C98.8257 115.14 98.6928 115.06 98.5615 115.057C98.4303 115.055 98.291 115.069 98.1437 115.103C97.9964 115.137 97.8363 115.151 97.6651 115.145C97.4922 115.14 97.2888 115.052 97.0551 114.885C96.8598 114.745 96.6645 114.569 96.4676 114.354C96.2707 114.14 96.093 113.94 95.9345 113.753C95.8737 113.683 95.792 113.58 95.6864 113.448C95.5823 113.317 95.4895 113.177 95.411 113.03C95.3326 112.883 95.2813 112.737 95.2605 112.596C95.2381 112.453 95.2813 112.338 95.387 112.246C95.5279 112.126 95.7264 112.06 95.9777 112.052C96.2291 112.044 96.442 112.042 96.6149 112.047L103.848 112.235C104.021 112.242 104.192 112.227 104.365 112.197C104.536 112.164 104.688 112.092 104.821 111.98C105.042 111.792 105.125 111.551 105.071 111.262C105.015 110.974 104.899 110.673 104.722 110.367L104.719 110.369Z" fill="white"/>
<path d="M113.683 97.6188C113.57 97.346 113.431 97.094 113.267 96.8629C113.102 96.6318 112.941 96.46 112.779 96.3445C112.694 96.2835 112.593 96.2305 112.476 96.1824C112.36 96.1359 112.241 96.1086 112.118 96.1005C111.996 96.0925 111.882 96.107 111.775 96.1471C111.67 96.1872 111.58 96.2578 111.506 96.3622C111.426 96.4761 111.401 96.6222 111.431 96.8019C111.461 96.9801 111.474 97.1999 111.468 97.4599C111.461 97.7199 111.413 98.0249 111.324 98.3748C111.234 98.7246 111.028 99.1275 110.704 99.5849C110.349 100.089 109.931 100.46 109.449 100.697C108.969 100.935 108.457 101.06 107.912 101.073C107.368 101.087 106.812 100.996 106.246 100.8C105.679 100.604 105.13 100.318 104.598 99.9412C104.4 99.7999 104.216 99.6266 104.048 99.4212C103.88 99.2157 103.75 98.9846 103.66 98.7295C103.571 98.4727 103.537 98.2078 103.561 97.9318C103.585 97.6557 103.694 97.3813 103.889 97.1052C104.184 96.6864 104.493 96.3814 104.815 96.1888C105.136 95.9962 105.458 95.8742 105.778 95.8229C106.098 95.7715 106.411 95.7587 106.715 95.7812C107.019 95.8052 107.312 95.8197 107.592 95.8261C107.872 95.8325 108.13 95.8004 108.364 95.7314C108.597 95.6624 108.802 95.5035 108.977 95.2563C109.279 94.8278 109.364 94.3961 109.231 93.9579C109.099 93.5214 108.828 93.1587 108.42 92.8682C108.021 92.5857 107.64 92.3787 107.277 92.2487C106.913 92.1187 106.577 92.0448 106.27 92.0256C105.962 92.0079 105.697 92.04 105.474 92.1235C105.25 92.2085 105.085 92.3257 104.978 92.4782C104.891 92.6018 104.839 92.7109 104.821 92.8056C104.805 92.9003 104.738 93.0287 104.624 93.1908C104.557 93.2855 104.432 93.3866 104.251 93.4941C104.069 93.6 103.854 93.7332 103.606 93.8921C103.358 94.051 103.097 94.2484 102.825 94.4828C102.553 94.7171 102.292 95.0108 102.042 95.3623C101.546 96.0652 101.192 96.8436 100.982 97.6943C100.772 98.5449 100.716 99.3971 100.811 100.251C100.905 101.105 101.157 101.909 101.56 102.668C101.965 103.426 102.532 104.064 103.262 104.583C103.973 105.088 104.747 105.424 105.585 105.589C106.422 105.754 107.253 105.759 108.076 105.6C108.898 105.443 109.681 105.132 110.424 104.665C111.165 104.199 111.802 103.591 112.332 102.84C112.627 102.421 112.853 102.013 113.005 101.615C113.158 101.217 113.274 100.85 113.355 100.514C113.435 100.179 113.499 99.8882 113.544 99.6411C113.589 99.3955 113.656 99.2093 113.743 99.0857C113.871 98.906 113.919 98.6829 113.892 98.4213C113.864 98.1581 113.792 97.8901 113.68 97.6172L113.683 97.6188Z" fill="white"/>
<path d="M120.676 85.4164C120.534 85.15 120.334 84.8771 120.077 84.5963C119.821 84.3154 119.538 84.0554 119.227 83.8147C118.917 83.5755 118.622 83.3974 118.342 83.2834C118.116 83.1903 117.862 83.163 117.577 83.1968C117.293 83.2321 117.098 83.3781 116.993 83.6381C116.9 83.8644 116.887 84.057 116.954 84.2175C117.021 84.3764 117.119 84.5369 117.249 84.6958C117.378 84.8563 117.522 85.028 117.679 85.211C117.836 85.3955 117.958 85.6202 118.044 85.8883C118.131 86.1563 118.161 86.4837 118.136 86.8689C118.11 87.2557 117.987 87.7227 117.763 88.2732C117.591 88.6937 117.45 89.0259 117.34 89.2699C117.228 89.5138 117.079 89.6727 116.892 89.7482C116.704 89.8236 116.451 89.814 116.131 89.7209C115.811 89.6278 115.355 89.4609 114.762 89.2185C114.633 89.1656 114.503 89.1094 114.37 89.0484C114.237 88.9874 114.125 88.9168 114.034 88.8349C113.941 88.7531 113.879 88.652 113.847 88.5316C113.813 88.4112 113.832 88.2652 113.903 88.0918C114.013 87.8222 114.138 87.6344 114.282 87.5285C114.425 87.4242 114.572 87.3632 114.722 87.3504C114.873 87.3359 115.025 87.3488 115.179 87.3857C115.332 87.4242 115.478 87.4515 115.616 87.4691C115.753 87.4868 115.878 87.4788 115.994 87.4435C116.109 87.4081 116.198 87.3102 116.264 87.1481C116.36 86.9106 116.333 86.6763 116.182 86.4452C116.032 86.2141 115.832 86.0038 115.582 85.8128C115.332 85.6234 115.065 85.4565 114.777 85.3153C114.49 85.1724 114.265 85.0681 114.105 85.0023C113.943 84.9365 113.722 84.8563 113.44 84.76C113.16 84.6637 112.873 84.5947 112.584 84.5513C112.294 84.508 112.022 84.5144 111.767 84.5674C111.513 84.6219 111.338 84.7664 111.242 85.0039C111.164 85.1981 111.149 85.3554 111.201 85.4774C111.252 85.5994 111.335 85.7085 111.452 85.8064C111.569 85.9043 111.702 85.9942 111.852 86.0728C112.001 86.1531 112.135 86.2413 112.252 86.3392C112.369 86.4371 112.451 86.5527 112.497 86.6843C112.544 86.8159 112.526 86.986 112.443 87.1899C112.342 87.4386 112.257 87.6296 112.19 87.766C112.123 87.9025 112.043 87.9891 111.951 88.0276C111.86 88.0662 111.746 88.0662 111.612 88.0309C111.476 87.9939 111.29 87.9281 111.053 87.8302C110.591 87.6409 110.216 87.4884 109.931 87.3728C109.646 87.2557 109.444 87.1208 109.324 86.9652C109.206 86.8095 109.164 86.6105 109.199 86.3665C109.235 86.1242 109.345 85.7743 109.529 85.3217C109.736 84.8145 109.939 84.4229 110.139 84.1453C110.339 83.8676 110.535 83.6686 110.722 83.5434C110.911 83.4198 111.087 83.3396 111.25 83.3059C111.415 83.2722 111.57 83.2417 111.721 83.2144C111.87 83.1871 112.003 83.1374 112.119 83.0651C112.236 82.9929 112.339 82.8501 112.427 82.6334C112.492 82.4713 112.512 82.3221 112.486 82.1856C112.46 82.0492 112.403 81.9256 112.316 81.8149C112.23 81.7042 112.121 81.6062 111.993 81.5228C111.863 81.4393 111.735 81.3703 111.606 81.3174C111.433 81.2467 111.205 81.1825 110.922 81.1232C110.639 81.0638 110.354 81.0397 110.067 81.0477C109.781 81.0574 109.518 81.1103 109.278 81.2066C109.038 81.3045 108.871 81.465 108.78 81.6929C108.754 81.7571 108.738 81.8422 108.734 81.9481C108.729 82.0524 108.71 82.2081 108.676 82.4151C108.642 82.6222 108.575 82.8966 108.473 83.2385C108.372 83.5803 108.212 84.0217 107.992 84.561L106.099 89.2233C106.033 89.3854 105.95 89.5812 105.85 89.8108C105.751 90.0403 105.678 90.2682 105.629 90.4945C105.581 90.7208 105.586 90.9326 105.644 91.1316C105.702 91.3306 105.854 91.4815 106.1 91.5826C106.294 91.6613 106.441 91.6869 106.54 91.658C106.64 91.6292 106.728 91.5746 106.805 91.4927C106.881 91.4109 106.958 91.3226 107.035 91.2279C107.112 91.1332 107.224 91.0562 107.373 90.9984C107.522 90.9406 107.723 90.9214 107.978 90.9438C108.233 90.9663 108.569 91.0498 108.987 91.1958C109.48 91.3724 109.896 91.5168 110.232 91.6292C110.57 91.7415 110.866 91.8474 111.12 91.9453C111.377 92.0432 111.609 92.1347 111.818 92.2214C112.028 92.3064 112.254 92.4092 112.496 92.5263C112.737 92.6435 113.018 92.7799 113.336 92.9356C113.656 93.0913 114.057 93.2871 114.538 93.5214C114.82 93.6626 115.028 93.7974 115.164 93.9274C115.299 94.0574 115.395 94.1874 115.448 94.3174C115.502 94.4458 115.531 94.5678 115.534 94.6834C115.537 94.7989 115.544 94.9081 115.552 95.0108C115.56 95.1151 115.589 95.2082 115.637 95.29C115.685 95.3735 115.784 95.4441 115.934 95.5067C115.989 95.5292 116.058 95.55 116.142 95.5725C116.227 95.595 116.319 95.5854 116.418 95.5436C116.515 95.5019 116.621 95.42 116.735 95.2965C116.848 95.1729 116.959 94.9755 117.069 94.7058L119.772 88.0517C119.885 87.7709 119.996 87.5237 120.101 87.3086C120.207 87.0936 120.308 86.8994 120.406 86.7244C120.497 86.5607 120.578 86.4211 120.651 86.3055C120.723 86.19 120.769 86.1065 120.791 86.052C120.857 85.8899 120.819 85.6764 120.675 85.41L120.676 85.4164Z" fill="white"/>
</svg>
